<svg width="1102" height="669" viewBox="0 0 1102 669" fill="none" xmlns="http://www.w3.org/2000/svg">
<path fill-rule="evenodd" clip-rule="evenodd" d="M111.658 55.75C111.658 24.9602 136.654 -2.25463e-06 167.488 0C198.321 2.25463e-06 223.316 24.9602 223.316 55.75C223.316 86.5399 198.321 111.5 167.488 111.5L167.455 111.5C136.642 111.524 111.67 136.474 111.67 167.25C111.67 136.459 86.6756 111.5 55.8411 111.5C86.3988 111.5 111.221 86.986 111.665 56.5769C111.66 56.3017 111.658 56.0261 111.658 55.75ZM229.425 141.872C225.816 148.908 223.661 156.811 223.355 165.186H223.377C223.675 156.812 225.824 148.909 229.425 141.872ZM334.975 165.546V165.186H334.964C333.899 135.331 309.327 111.456 279.171 111.456C278.613 111.456 278.059 111.464 277.505 111.48C247.43 110.613 223.318 85.9954 223.318 55.7527C223.318 86.5435 198.322 111.504 167.488 111.504C198.289 111.504 223.263 136.41 223.316 167.155V611.186H223.378C223.354 611.871 223.341 612.559 223.341 613.25C223.341 644.04 248.337 669 279.171 669C310.004 669 335 644.04 335 613.25C335 612.559 334.988 611.871 334.962 611.186H334.975V168.865C334.992 168.314 335 167.76 335 167.206C335 166.651 334.992 166.098 334.975 165.546ZM55.8293 111.5C24.9957 111.5 2.69556e-06 136.46 0 167.25C-2.69556e-06 198.04 24.9955 223 55.8293 223C86.6629 223 111.658 198.04 111.658 167.25C111.658 136.46 86.6629 111.5 55.8293 111.5Z" fill="#75FEFA"/>
<path fill-rule="evenodd" clip-rule="evenodd" d="M600.228 111.5H600.25H934.75L934.78 111.5C965.532 111.516 990.459 136.428 990.5 167.174C990.5 167.199 990.5 167.225 990.5 167.25C990.5 167.276 990.5 167.3 990.5 167.326C990.459 198.082 965.515 223 934.75 223H711.75C680.96 223 656 247.96 656 278.75C656 309.54 680.96 334.5 711.75 334.5H934.75H934.794C965.539 334.524 990.459 359.433 990.5 390.174V390.25V501.751V501.826C990.459 532.583 965.515 557.5 934.75 557.5H600.25C569.46 557.5 544.5 532.541 544.5 501.751C544.5 470.96 519.54 446 488.75 446C457.96 446 433 470.96 433 501.751C433 532.54 457.96 557.5 488.75 557.5C519.518 557.5 544.462 582.421 544.5 613.18V613.25C544.5 644.04 569.46 669 600.25 669H934.75C965.54 669 990.5 644.04 990.5 613.25C990.5 582.46 1015.46 557.5 1046.25 557.5C1077.04 557.5 1102 532.54 1102 501.751V390.25C1102 359.46 1077.04 334.5 1046.25 334.5C1015.46 334.5 990.5 309.54 990.5 278.75C990.5 247.97 1015.44 223.017 1046.22 223C1046.23 223 1046.24 223 1046.25 223C1077.04 223 1102 198.04 1102 167.25C1102 136.46 1077.04 111.5 1046.25 111.5C1015.46 111.5 990.5 86.5408 990.5 55.75C990.5 24.9602 965.54 0 934.75 0H600.25C569.46 0 544.5 24.9602 544.5 55.75V55.8231C544.461 86.5803 519.516 111.5 488.75 111.5C457.96 111.5 433 136.46 433 167.25C433 198.04 457.96 223 488.75 223C519.54 223 544.5 198.04 544.5 167.25C544.5 136.466 569.447 111.512 600.228 111.5Z" fill="#75FEFA"/>
</svg>
