<svg width="698" height="105" viewBox="0 0 698 105" fill="none" xmlns="http://www.w3.org/2000/svg">
<path d="M276.129 27.6309H250.756C247.434 27.6309 244.726 30.3389 244.726 33.6608C244.726 37.0133 241.935 40.3174 238.069 40.3174C234.747 40.3174 232.039 43.0255 232.039 46.3474V98.2204C232.039 101.542 234.747 104.25 238.069 104.25C241.391 104.25 244.099 101.542 244.099 98.2204V46.2984C244.099 43.2178 246.322 39.6418 250.756 39.6418H276.129C279.451 39.6418 282.159 36.9338 282.159 33.6119C282.159 30.3375 279.449 27.6309 276.129 27.6309Z" fill="#9896AE" stroke="#9896AE" stroke-width="0.5"/>
<path d="M356.399 84.85L356.399 84.8535C356.446 88.255 353.654 91.6046 349.791 91.6046H299.045C295.964 91.6046 292.388 89.3819 292.388 84.948V46.8883V46.8883V46.8883V46.8882V46.8882V46.8882V46.8882V46.8882V46.8882V46.8881V46.8881V46.8881V46.8881V46.8881V46.8881V46.888V46.888V46.888V46.888V46.888V46.8879V46.8879V46.8879V46.8879V46.8878V46.8878V46.8878V46.8878V46.8877V46.8877V46.8877V46.8877V46.8877V46.8877V46.8876V46.8876V46.8876V46.8876V46.8876V46.8876V46.8875V46.8875V46.8875V46.8875V46.8875V46.8874V46.8874V46.8874V46.8874V46.8874V46.8873V46.8873V46.8873V46.8873V46.8873V46.8872V46.8872V46.8872V46.8872V46.8871V46.8871V46.8871V46.8871V46.8871V46.887V46.887V46.887V46.887V46.8869V46.8869V46.8869V46.8868V46.8868V46.8868V46.8868V46.8867V46.8867V46.8867V46.8866V46.8866V46.8866V46.8866V46.8865V46.8865V46.8865V46.8864V46.8864V46.8864V46.8863V46.8863V46.8863V46.8862V46.8862V46.8862V46.8861V46.8861V46.886V46.886V46.886V46.8859V46.8859V46.8859V46.8858V46.8858V46.8857V46.8857V46.8857V46.8856V46.8856V46.8855V46.8855V46.8855V46.8854V46.8854V46.8853V46.8853V46.8852V46.8852V46.8851V46.8851V46.885V46.885V46.885V46.8849V46.8849V46.8848V46.8848V46.8847V46.8847V46.8846V46.8846V46.8845V46.8845V46.8844V46.8843V46.8843V46.8842V46.8842V46.8841V46.8841V46.884V46.884V46.8839V46.8838V46.8838V46.8837V46.8837V46.8836V46.8835V46.8835V46.8834V46.8834V46.8833V46.8832V46.8832V46.8831V46.883V46.883V46.8829V46.8829V46.8828V46.8827V46.8827V46.8826V46.8825V46.8824V46.8824V46.8823V46.8822V46.8822V46.8821V46.882V46.8819V46.8819V46.8818V46.8817V46.8816V46.8816V46.8815V46.8814V46.8813V46.8813V46.8812V46.8811V46.881V46.8809V46.8809V46.8808V46.8807V46.8806V46.8805V46.8804V46.8804V46.8803V46.8802V46.8801V46.88V46.8799V46.8798V46.8797V46.8797V46.8796V46.8795V46.8794V46.8793V46.8792V46.8791V46.879V46.8789V46.8788V46.8787V46.8786V46.8785V46.8784V46.8783V46.8782V46.8781V46.878V46.8779V46.8778V46.8777V46.8776V46.8775V46.8774V46.8773V46.8772V46.8771V46.877V46.8769V46.8768V46.8767V46.8765V46.8764V46.8763V46.8762V46.8761V46.876V46.8759V46.8758V46.8756V46.8755V46.8754V46.8753V46.8752V46.875V46.8749V46.8748V46.8747V46.8746V46.8744V46.8743V46.8742V46.8741V46.8739V46.8738V46.8737V46.8736V46.8734V46.8733V46.8732V46.873V46.8729V46.8728V46.8726V46.8725V46.8724V46.8722V46.8721V46.872V46.8718V46.8717V46.8715V46.8714V46.8713V46.8711V46.871V46.8708V46.8707V46.8705V46.8704V46.8702V46.8701V46.8699V46.8698V46.8696V46.8695V46.8693V46.8692V46.869V46.8689V46.8687V46.8686V46.8684V46.8683V46.8681V46.8679V46.8678V46.8676V46.8675V46.8673V46.8671V46.867V46.8668V46.8666V46.8665V46.8663V46.8661V46.866V46.8658V46.8656V46.8654V46.8653V46.8651V46.8649V46.8648V46.8646V46.8644V46.8642V46.864V46.8639V46.8637V46.8635V46.8633V46.8631V46.8629V46.8628V46.8626V46.8624V46.8622V46.862V46.8618V46.8616V46.8614V46.8612V46.8611V46.8609V46.8607V46.8605V46.8603V46.8601V46.8599V46.8597V46.8595V46.8593V46.8591V46.8589V46.8587V46.8585V46.8582V46.858V46.8578V46.8576V46.8574V46.8572V46.857V46.8568V46.8566V46.8563V46.8561V46.8559V46.8557V46.8555V46.8552V46.855V46.8548V46.8546V46.8544V46.8541V46.8539V46.8537V46.8535V46.8532V46.853V46.8528V46.8525V46.8523V46.8521V46.8518V46.8516V46.8514V46.8511V46.8509V46.8506V46.8504V46.8502V46.8499V46.8497V46.8494V46.8492V46.8489V46.8487V46.8484V46.8482V46.8479V46.8477V46.8474V46.8472V46.8469V46.8466V46.8464V46.8461V46.8459V46.8456V46.8453V46.8451V46.8448V46.8446V46.8443V46.844V46.8438V46.8435V46.8432V46.8429V46.8427V46.8424V46.8421V46.8418V46.8416V46.8413V46.841V46.8407V46.8404V46.8402V46.8399V46.8396V46.8393C292.388 43.7586 294.611 40.1827 299.045 40.1827H349.742C353.095 40.1827 356.399 42.9732 356.399 46.8393L356.399 84.85ZM362.478 40.9073C359.397 40.9073 355.821 38.6845 355.821 34.2507C355.821 30.9287 353.113 28.2207 349.791 28.2207H299.045C295.723 28.2207 293.015 30.9287 293.015 34.2507C293.015 37.6032 290.224 40.9073 286.358 40.9073C283.036 40.9073 280.328 43.6153 280.328 46.9373V84.948C280.328 88.27 283.036 90.978 286.358 90.978C289.711 90.978 293.015 93.7685 293.015 97.6346C293.015 100.957 295.723 103.665 299.045 103.665H349.742C353.064 103.665 355.772 100.957 355.772 97.6346C355.772 94.5539 357.995 90.978 362.429 90.978C365.751 90.978 368.459 88.27 368.459 84.948V46.8883C368.459 43.5663 365.8 40.9073 362.478 40.9073Z" fill="#9896AE" stroke="#9896AE" stroke-width="0.5"/>
<path d="M216.932 40.9073C213.852 40.9073 210.276 38.6845 210.276 34.2507C210.276 30.9287 207.568 28.2207 204.246 28.2207H153.549C150.227 28.2207 147.519 30.9287 147.519 34.2507C147.519 37.6032 144.728 40.9073 140.862 40.9073C137.54 40.9073 134.832 43.6153 134.832 46.9373V84.948C134.832 88.27 137.54 90.978 140.862 90.978C144.215 90.978 147.519 93.7685 147.519 97.6346C147.519 100.957 150.227 103.665 153.549 103.665H204.246C207.568 103.665 210.276 100.957 210.276 97.6346C210.276 94.5539 212.499 90.978 216.932 90.978C220.254 90.978 222.962 88.27 222.962 84.948V46.8883C222.962 43.5636 220.252 40.9073 216.932 40.9073ZM204.246 91.6046H153.549C150.468 91.6046 146.892 89.3819 146.892 84.948V46.8883V46.8883V46.8883V46.8882V46.8882V46.8882V46.8882V46.8882V46.8882V46.8881V46.8881V46.8881V46.8881V46.8881V46.8881V46.888V46.888V46.888V46.888V46.888V46.8879V46.8879V46.8879V46.8879V46.8878V46.8878V46.8878V46.8878V46.8877V46.8877V46.8877V46.8877V46.8877V46.8877V46.8876V46.8876V46.8876V46.8876V46.8876V46.8876V46.8875V46.8875V46.8875V46.8875V46.8875V46.8874V46.8874V46.8874V46.8874V46.8874V46.8873V46.8873V46.8873V46.8873V46.8873V46.8872V46.8872V46.8872V46.8872V46.8871V46.8871V46.8871V46.8871V46.8871V46.887V46.887V46.887V46.887V46.8869V46.8869V46.8869V46.8868V46.8868V46.8868V46.8868V46.8867V46.8867V46.8867V46.8866V46.8866V46.8866V46.8866V46.8865V46.8865V46.8865V46.8864V46.8864V46.8864V46.8863V46.8863V46.8863V46.8862V46.8862V46.8862V46.8861V46.8861V46.886V46.886V46.886V46.8859V46.8859V46.8859V46.8858V46.8858V46.8857V46.8857V46.8857V46.8856V46.8856V46.8855V46.8855V46.8855V46.8854V46.8854V46.8853V46.8853V46.8852V46.8852V46.8851V46.8851V46.885V46.885V46.885V46.8849V46.8849V46.8848V46.8848V46.8847V46.8847V46.8846V46.8846V46.8845V46.8845V46.8844V46.8843V46.8843V46.8842V46.8842V46.8841V46.8841V46.884V46.884V46.8839V46.8838V46.8838V46.8837V46.8837V46.8836V46.8835V46.8835V46.8834V46.8834V46.8833V46.8832V46.8832V46.8831V46.883V46.883V46.8829V46.8829V46.8828V46.8827V46.8827V46.8826V46.8825V46.8824V46.8824V46.8823V46.8822V46.8822V46.8821V46.882V46.8819V46.8819V46.8818V46.8817V46.8816V46.8816V46.8815V46.8814V46.8813V46.8813V46.8812V46.8811V46.881V46.8809V46.8809V46.8808V46.8807V46.8806V46.8805V46.8804V46.8804V46.8803V46.8802V46.8801V46.88V46.8799V46.8798V46.8797V46.8797V46.8796V46.8795V46.8794V46.8793V46.8792V46.8791V46.879V46.8789V46.8788V46.8787V46.8786V46.8785V46.8784V46.8783V46.8782V46.8781V46.878V46.8779V46.8778V46.8777V46.8776V46.8775V46.8774V46.8773V46.8772V46.8771V46.877V46.8769V46.8768V46.8767V46.8765V46.8764V46.8763V46.8762V46.8761V46.876V46.8759V46.8758V46.8756V46.8755V46.8754V46.8753V46.8752V46.875V46.8749V46.8748V46.8747V46.8746V46.8744V46.8743V46.8742V46.8741V46.8739V46.8738V46.8737V46.8736V46.8734V46.8733V46.8732V46.873V46.8729V46.8728V46.8726V46.8725V46.8724V46.8722V46.8721V46.872V46.8718V46.8717V46.8715V46.8714V46.8713V46.8711V46.871V46.8708V46.8707V46.8705V46.8704V46.8702V46.8701V46.8699V46.8698V46.8696V46.8695V46.8693V46.8692V46.869V46.8689V46.8687V46.8686V46.8684V46.8683V46.8681V46.8679V46.8678V46.8676V46.8675V46.8673V46.8671V46.867V46.8668V46.8666V46.8665V46.8663V46.8661V46.866V46.8658V46.8656V46.8654V46.8653V46.8651V46.8649V46.8648V46.8646V46.8644V46.8642V46.864V46.8639V46.8637V46.8635V46.8633V46.8631V46.8629V46.8628V46.8626V46.8624V46.8622V46.862V46.8618V46.8616V46.8614V46.8612V46.8611V46.8609V46.8607V46.8605V46.8603V46.8601V46.8599V46.8597V46.8595V46.8593V46.8591V46.8589V46.8587V46.8585V46.8582V46.858V46.8578V46.8576V46.8574V46.8572V46.857V46.8568V46.8566V46.8563V46.8561V46.8559V46.8557V46.8555V46.8552V46.855V46.8548V46.8546V46.8544V46.8541V46.8539V46.8537V46.8535V46.8532V46.853V46.8528V46.8525V46.8523V46.8521V46.8518V46.8516V46.8514V46.8511V46.8509V46.8506V46.8504V46.8502V46.8499V46.8497V46.8494V46.8492V46.8489V46.8487V46.8484V46.8482V46.8479V46.8477V46.8474V46.8472V46.8469V46.8466V46.8464V46.8461V46.8459V46.8456V46.8453V46.8451V46.8448V46.8446V46.8443V46.844V46.8438V46.8435V46.8432V46.8429V46.8427V46.8424V46.8421V46.8418V46.8416V46.8413V46.841V46.8407V46.8404V46.8402V46.8399V46.8396V46.8393C146.892 43.7586 149.115 40.1827 153.549 40.1827H204.246C207.598 40.1827 210.902 42.9732 210.902 46.8393V84.85C210.902 88.255 208.109 91.6046 204.246 91.6046Z" fill="#9896AE" stroke="#9896AE" stroke-width="0.5"/>
<path d="M503.534 21.7654V21.5154H503.48C503.348 18.3086 500.693 15.7354 497.455 15.7354C494.374 15.7354 490.798 13.5127 490.798 9.07881C490.798 5.75685 488.09 3.04883 484.768 3.04883H396.06C392.738 3.04883 390.03 5.75685 390.03 9.07881C390.03 12.4313 387.24 15.7354 383.374 15.7354C380.052 15.7354 377.344 18.4434 377.344 21.7654V85.1493C377.344 88.4713 380.052 91.1793 383.374 91.1793C386.726 91.1793 390.03 93.9698 390.03 97.8359C390.03 101.158 392.738 103.866 396.06 103.866H484.817C488.139 103.866 490.847 101.158 490.847 97.8359V97.8358V97.8357V97.8357V97.8356V97.8356V97.8355V97.8354V97.8354V97.8353V97.8353V97.8352V97.8351V97.835V97.835V97.8349V97.8348V97.8348V97.8347V97.8346V97.8346V97.8345V97.8344V97.8343V97.8343V97.8342V97.8341V97.8341V97.834V97.8339V97.8339V97.8338V97.8337V97.8337V97.8336V97.8335V97.8334V97.8334V97.8333V97.8332V97.8331V97.833V97.8329V97.8329V97.8328V97.8327V97.8326V97.8325V97.8324V97.8323V97.8322V97.8321V97.832V97.8319V97.8318V97.8317V97.8316V97.8315V97.8314V97.8314V97.8313V97.8312V97.8311V97.8311V97.831V97.8309V97.8309V97.8308V97.8308V97.8307V97.8306V97.8306V97.8305V97.8304V97.8304V97.8303V97.8302V97.8302V97.8301V97.83V97.83V97.8299V97.8298V97.8297V97.8297V97.8296V97.8295V97.8295V97.8294V97.8293V97.8292V97.8292V97.8291V97.829V97.8289V97.8288V97.8288V97.8287V97.8286V97.8285V97.8284V97.8284V97.8283V97.8282V97.8281V97.828V97.8279V97.8279V97.8278V97.8277V97.8276V97.8275V97.8274V97.8273V97.8272V97.8271V97.8271V97.827V97.8269V97.8268V97.8267V97.8266V97.8265V97.8264V97.8263V97.8262V97.8261V97.826V97.8259V97.8258V97.8257V97.8256V97.8255V97.8254V97.8253V97.8252V97.8251V97.825V97.8249V97.8248V97.8247V97.8246V97.8245V97.8244V97.8242V97.8241V97.824V97.8239V97.8238V97.8237V97.8236V97.8235V97.8233V97.8232V97.8231V97.823V97.8229V97.8228V97.8226V97.8225V97.8224V97.8223V97.8222V97.822V97.8219V97.8218V97.8217V97.8215V97.8214V97.8213V97.8211V97.821V97.8209V97.8208V97.8206V97.8205V97.8204V97.8202V97.8201V97.82V97.8198V97.8197V97.8195V97.8194V97.8193V97.8191V97.819V97.8188V97.8187V97.8186V97.8184V97.8183V97.8181V97.818V97.8178V97.8177V97.8175V97.8174V97.8172V97.8171V97.8169V97.8168V97.8166V97.8165V97.8163V97.8162V97.816V97.8158V97.8157V97.8155V97.8154V97.8152V97.815V97.8149V97.8147V97.8146V97.8144V97.8142V97.8141V97.8139V97.8137V97.8135V97.8134V97.8132V97.813V97.8129V97.8127V97.8125V97.8123V97.8122V97.812V97.8118V97.8116V97.8114V97.8113V97.8111V97.8109V97.8107V97.8105V97.8103V97.8102V97.81V97.8098V97.8096V97.8094V97.8092V97.809V97.8088V97.8086V97.8084V97.8083V97.8081V97.8079V97.8077V97.8075V97.8073V97.8071V97.8069V97.8066V97.8064V97.8062V97.806V97.8058V97.8056V97.8054V97.8052V97.805V97.8048V97.8046V97.8044V97.8041V97.8039V97.8037V97.8035V97.8033V97.8031V97.8028V97.8026V97.8024V97.8022V97.8019V97.8017V97.8015V97.8013V97.801V97.8008V97.8006V97.8003V97.8001V97.7999V97.7996V97.7994V97.7992V97.7989V97.7987V97.7985V97.7982V97.798V97.7977V97.7975V97.7972V97.797V97.7968V97.7965V97.7963V97.796V97.7958V97.7955V97.7953V97.795V97.7947V97.7945V97.7942V97.794V97.7937V97.7935V97.7932V97.7929V97.7927V97.7924V97.7921V97.7919V97.7916V97.7913V97.7911V97.7908V97.7905V97.7903V97.79V97.7897V97.7894V97.7891V97.7889V97.7886V97.7883V97.788V97.7877V97.7875V97.7872V97.7869C490.847 94.7062 493.07 91.1303 497.504 91.1303H499.806C501.855 91.1303 503.534 89.4509 503.534 87.4025V82.8471V82.8465V82.8459V82.8454V82.8448V82.8442V82.8437V82.8431V82.8425V82.8419V82.8414V82.8408V82.8402V82.8396V82.8391V82.8385V82.8379V82.8373V82.8368V82.8362V82.8356V82.835V82.8345V82.8339V82.8333V82.8327V82.8322V82.8316V82.831V82.8304V82.8299V82.8293V82.8287V82.8281V82.8276V82.827V82.8264V82.8259V82.8253V82.8247V82.8241V82.8236V82.823V82.8224V82.8218V82.8213V82.8207V82.8201V82.8195V82.819V82.8184V82.8178V82.8172V82.8167V82.8161V82.8155V82.8149V82.8144V82.8138V82.8132V82.8127V82.8121V82.8115V82.8109V82.8104V82.8098V82.8092V82.8086V82.8081V82.8075V82.8069V82.8063V82.8058V82.8052V82.8046V82.804V82.8035V82.8029V82.8023V82.8017V82.8012V82.8006V82.8V82.7994V82.7989V82.7983V82.7977V82.7972V82.7966V82.796V82.7954V82.7949V82.7943V82.7937V82.7931V82.7926V82.792V82.7914V82.7908V82.7903V82.7897V82.7891V82.7885V82.788V82.7874V82.7868V82.7862V82.7857V82.7851V82.7845V82.784V82.7834V82.7828V82.7822V82.7817V82.7811V82.7805V82.7799V82.7794V82.7788V82.7782V82.7776V82.7771V82.7765V82.7759V82.7753V82.7748V82.7742V82.7736V82.773V82.7725V82.7719V82.7713V82.7708V82.7702V82.7696V82.769V82.7685V82.7679V82.7673V82.7667V82.7662V82.7656V82.765V82.7644V82.7639V82.7633V82.7627V82.7621V82.7616V82.761V82.7604V82.7598V82.7593V82.7587V82.7581V82.7575V82.757V82.7564V82.7558V82.7552V82.7547V82.7541V82.7535V82.753V82.7524V82.7518V82.7512V82.7507V82.7501V82.7495V82.7489V82.7484V82.7478V82.7472V82.7466V82.7461V82.7455V82.7449V82.7443V82.7438V82.7432V82.7426V82.7421V82.7415V82.7409V82.7403V82.7398V82.7392V82.7386V82.738V82.7375V82.7369V82.7363V82.7357V82.7352V82.7346V82.734V82.7334V82.7329V82.7323V82.7317V82.7311V82.7306V82.73V82.7294V82.7288V82.7283V82.7277V82.7271V82.7265V82.726V82.7254V82.7248V82.7243V82.7237V82.7231V82.7225V82.722V82.7214V82.7208V82.7202V82.7197V82.7191V82.7185V82.7179V82.7174V82.7168V82.7162V82.7156V82.7151V82.7145V82.7139V82.7133V82.7128V82.7122V82.7116V82.7111V82.7105V82.7099V82.7093V82.7088V82.7082V82.7076V82.707V82.7065V82.7059V82.7053V82.7047V82.7042V82.7036V82.703V82.7024V82.7019V82.7013V82.7007V82.7001V82.6996V82.699V82.6984V82.6978V82.6973V82.6967V82.6961V82.6955V82.695V82.6944V82.6938V82.6933V82.6927V82.6921V82.6915V82.691V82.6904V82.6898V82.6892V82.6887V82.6881V82.6875V82.6869V82.6864V82.6858V82.6852V82.6846V82.6841V82.6835V82.6829V82.6824V82.6818V82.6812V82.6806V82.6801V82.6795V82.6789V82.6783V82.6778V82.6772V82.6766V82.676V82.6755V82.6749V82.6743V82.6737V82.6732V82.6726V82.672V82.6714V82.6709V82.6703V82.6697V82.6691V82.6686V82.668V82.6674V82.6669V82.6663V82.6657V82.6651V82.6646V82.664V82.6634V82.6628V82.6623V82.6617V82.6611V82.6605V82.66V82.6594V82.6588V82.6582V82.6577V82.6571V82.6565V82.6559V82.6554V82.6548V82.6542V82.6536V82.6531V82.6525V82.6519V82.6514V82.6508V82.6502V82.6496V82.6491V82.6485V82.6479V82.6473V82.6468V82.6462V82.6456V82.645V82.6445V82.6439V82.6433V82.6427V82.6422V82.6416V82.641V82.6404V82.6399V82.6393V82.6387V82.6382V82.6376V82.637V82.6364V82.6359V82.6353V82.6347V82.6341V82.6336V82.633V82.6324V82.6318V82.6313V82.6307V82.6301V82.6295V82.629V82.6284V82.6278V82.6272V82.6267V82.6261V82.6255V82.6249V82.6244V82.6238V82.6232V82.6227V82.6221V82.6215V82.6209V82.6204V82.6198V82.6192V82.6186V82.6181V82.6175V82.6169V82.6163V82.6158V82.6152V82.6146V82.614V82.6135V82.6129V82.6123V82.6117V82.6112V82.6106V82.61V82.6095V82.6089V82.6083V82.6077V82.6072V82.6066V82.606V82.6054V82.6049V82.6043V82.6037V82.6031V82.6026V82.602V82.6014V82.6008V82.6003V82.5997V82.5991V82.5985V82.598V82.5974V82.5968V82.5962V82.5957V82.5951V82.5945V82.5939V82.5934V82.5928V82.5922V82.5917V82.5911V82.5905V82.5899V82.5894V82.5888V82.5882V82.5876V82.5871V82.5865V82.5859V82.5853V82.5848V82.5842V82.5836V82.583V82.5825V82.5819V82.5813V82.5807V82.5802V82.5796V82.579V82.5785V82.5779V82.5773V82.5767V82.5762V82.5756V82.575V82.5744V82.5739V82.5733V82.5727V82.5721V82.5716V82.571V82.5704V82.5698V82.5693V82.5687V82.5681V82.5675V82.567V82.5664V82.5658V82.5652V82.5647V82.5641V82.5635V82.563V82.5624V82.5618V82.5612V82.5607V82.5601V82.5595V82.5589V82.5584V82.5578V82.5572V82.5566V82.5561V82.5555V82.5549V82.5543V82.5538V82.5532V21.7654ZM396.06 91.7569H395.81V91.801C392.79 91.6845 389.404 89.4637 389.404 85.1493V21.7654V21.7654V21.7654V21.7653V21.7653V21.7653V21.7653V21.7653V21.7653V21.7652V21.7652V21.7652V21.7652V21.7652V21.7652V21.7651V21.7651V21.7651V21.7651V21.7651V21.765V21.765V21.765V21.765V21.765V21.7649V21.7649V21.7649V21.7649V21.7648V21.7648V21.7648V21.7648V21.7648V21.7647V21.7647V21.7647V21.7647V21.7647V21.7647V21.7646V21.7646V21.7646V21.7646V21.7646V21.7646V21.7645V21.7645V21.7645V21.7645V21.7645V21.7644V21.7644V21.7644V21.7644V21.7643V21.7643V21.7643V21.7643V21.7643V21.7642V21.7642V21.7642V21.7642V21.7641V21.7641V21.7641V21.7641V21.764V21.764V21.764V21.764V21.7639V21.7639V21.7639V21.7638V21.7638V21.7638V21.7638V21.7637V21.7637V21.7637V21.7636V21.7636V21.7636V21.7635V21.7635V21.7635V21.7634V21.7634V21.7634V21.7633V21.7633V21.7633V21.7632V21.7632V21.7632V21.7631V21.7631V21.763V21.763V21.763V21.7629V21.7629V21.7628V21.7628V21.7628V21.7627V21.7627V21.7626V21.7626V21.7626V21.7625V21.7625V21.7624V21.7624V21.7623V21.7623V21.7622V21.7622V21.7622V21.7621V21.7621V21.762V21.762V21.7619V21.7619V21.7618V21.7618V21.7617V21.7617V21.7616V21.7616V21.7615V21.7615V21.7614V21.7613V21.7613V21.7612V21.7612V21.7611V21.7611V21.761V21.761V21.7609V21.7608V21.7608V21.7607V21.7607V21.7606V21.7605V21.7605V21.7604V21.7603V21.7603V21.7602V21.7602V21.7601V21.76V21.76V21.7599V21.7598V21.7598V21.7597V21.7596V21.7596V21.7595V21.7594V21.7593V21.7593V21.7592V21.7591V21.7591V21.759V21.7589V21.7588V21.7588V21.7587V21.7586V21.7585V21.7584V21.7584V21.7583V21.7582V21.7581V21.758V21.758V21.7579V21.7578V21.7577V21.7576V21.7576V21.7575V21.7574V21.7573V21.7572V21.7571V21.757V21.7569V21.7569V21.7568V21.7567V21.7566V21.7565V21.7564V21.7563V21.7562V21.7561V21.756V21.7559V21.7558V21.7557V21.7556V21.7555V21.7554V21.7553V21.7552V21.7551V21.755V21.7549V21.7548V21.7547V21.7546V21.7545V21.7544V21.7543V21.7542V21.7541V21.754V21.7539V21.7538V21.7537V21.7535V21.7534V21.7533V21.7532V21.7531V21.753V21.7529V21.7527V21.7526V21.7525V21.7524V21.7523V21.7522V21.752V21.7519V21.7518V21.7517V21.7515V21.7514V21.7513V21.7512V21.751V21.7509V21.7508V21.7507V21.7505V21.7504V21.7503V21.7501V21.75V21.7499V21.7497V21.7496V21.7495V21.7493V21.7492V21.7491V21.7489V21.7488V21.7486V21.7485V21.7484V21.7482V21.7481V21.7479V21.7478V21.7476V21.7475V21.7474V21.7472V21.7471V21.7469V21.7468V21.7466V21.7465V21.7463V21.7461V21.746V21.7458V21.7457V21.7455V21.7454V21.7452V21.745V21.7449V21.7447V21.7446V21.7444V21.7442V21.7441V21.7439V21.7437V21.7436V21.7434V21.7432V21.7431V21.7429V21.7427V21.7426V21.7424V21.7422V21.742V21.7419V21.7417V21.7415V21.7413V21.7411V21.741V21.7408V21.7406V21.7404V21.7402V21.7401V21.7399V21.7397V21.7395V21.7393V21.7391V21.7389V21.7387V21.7385V21.7384V21.7382V21.738V21.7378V21.7376V21.7374V21.7372V21.737V21.7368V21.7366V21.7364V21.7362V21.736V21.7358V21.7356V21.7354V21.7351V21.7349V21.7347V21.7345V21.7343V21.7341V21.7339V21.7337V21.7334V21.7332V21.733V21.7328V21.7326V21.7324V21.7321V21.7319V21.7317V21.7315V21.7312V21.731V21.7308V21.7306V21.7303V21.7301V21.7299V21.7296V21.7294V21.7292V21.7289V21.7287V21.7285V21.7282V21.728V21.7277V21.7275V21.7273V21.727V21.7268V21.7265V21.7263V21.726V21.7258V21.7255V21.7253V21.725V21.7248V21.7245V21.7243V21.724V21.7238V21.7235V21.7232V21.723V21.7227V21.7225V21.7222V21.7219V21.7217V21.7214V21.7211V21.7209V21.7206V21.7203V21.72V21.7198V21.7195V21.7192V21.7189V21.7187V21.7184V21.7181V21.7178V21.7175V21.7173V21.717V21.7167V21.7164C389.404 18.6357 391.626 15.0598 396.06 15.0598H484.817C488.124 15.0598 491.474 17.8047 491.474 21.6674V21.7164V85.1003V85.1493C491.474 88.4517 488.685 91.7569 484.817 91.7569H396.06Z" fill="#9896AE" stroke="#9896AE" stroke-width="0.5"/>
<path d="M594.632 40.9053C591.551 40.9053 587.975 38.6826 587.975 34.2487C587.975 30.9268 585.267 28.2188 581.945 28.2188H531.248C527.926 28.2188 525.218 30.9268 525.218 34.2487C525.218 37.6012 522.427 40.9053 518.561 40.9053C515.239 40.9053 512.531 43.6134 512.531 46.9353V97.6326C512.531 100.955 515.239 103.663 518.561 103.663C521.883 103.663 524.591 100.955 524.591 97.6326V46.8863V46.8393C524.64 43.804 526.864 40.2297 531.248 40.2297H581.945C585.298 40.2297 588.602 43.0202 588.602 46.8863V97.6326C588.602 100.955 591.31 103.663 594.632 103.663C597.954 103.663 600.662 100.955 600.662 97.6326V46.8863C600.662 43.5616 597.951 40.9053 594.632 40.9053Z" fill="#9896AE" stroke="#9896AE" stroke-width="0.5"/>
<path d="M6.84956 13.7114V13.7114L6.84565 13.7114C3.51006 13.7636 0.75 16.5265 0.75 19.9167V84.6737C0.75 88.0644 3.5115 90.8289 6.89955 90.8289C9.99774 90.8289 13.6501 93.0533 13.699 97.5363V97.5364V97.5367V97.537V97.5373V97.5376V97.5379V97.5381V97.5384V97.5387V97.539V97.5393V97.5395V97.5398V97.5401V97.5404V97.5406V97.5409V97.5412V97.5414V97.5417V97.542V97.5422V97.5425V97.5428V97.543V97.5433V97.5435V97.5438V97.5441V97.5443V97.5446V97.5448V97.5451V97.5453V97.5456V97.5458V97.5461V97.5463V97.5466V97.5468V97.5471V97.5473V97.5476V97.5478V97.5481V97.5483V97.5485V97.5488V97.549V97.5493V97.5495V97.5497V97.55V97.5502V97.5504V97.5507V97.5509V97.5511V97.5514V97.5516V97.5518V97.5521V97.5523V97.5525V97.5527V97.553V97.5532V97.5534V97.5536V97.5538V97.5541V97.5543V97.5545V97.5547V97.5549V97.5552V97.5554V97.5556V97.5558V97.556V97.5562V97.5564V97.5566V97.5569V97.5571V97.5573V97.5575V97.5577V97.5579V97.5581V97.5583V97.5585V97.5587V97.5589V97.5591V97.5593V97.5595V97.5597V97.5599V97.5601V97.5603V97.5605V97.5607V97.5609V97.5611V97.5613V97.5615V97.5617V97.5619V97.5621V97.5623V97.5625V97.5626V97.5628V97.563V97.5632V97.5634V97.5636V97.5638V97.564V97.5641V97.5643V97.5645V97.5647V97.5649V97.5651V97.5652V97.5654V97.5656V97.5658V97.566V97.5661V97.5663V97.5665V97.5667V97.5669V97.567V97.5672V97.5674V97.5676V97.5677V97.5679V97.5681V97.5683V97.5684V97.5686V97.5688V97.5689V97.5691V97.5693V97.5695V97.5696V97.5698V97.57V97.5701V97.5703V97.5705V97.5706V97.5708V97.571V97.5711V97.5713V97.5715V97.5716V97.5718V97.5719V97.5721V97.5723V97.5724V97.5726V97.5728V97.5729V97.5731V97.5732V97.5734V97.5736V97.5737V97.5739V97.574V97.5742V97.5743V97.5745V97.5747V97.5748V97.575V97.5751V97.5753V97.5754V97.5756V97.5758V97.5759V97.5761V97.5762V97.5764V97.5765V97.5767V97.5768V97.577V97.5771V97.5773V97.5775V97.5776V97.5778V97.5779V97.5781V97.5782V97.5784V97.5785V97.5787V97.5788V97.579V97.5791V97.5793V97.5794V97.5796V97.5797V97.5799V97.58V97.5802V97.5803V97.5805V97.5806V97.5808V97.5809V97.5811V97.5812V97.5814V97.5815V97.5816V97.5818V97.5819V97.5821V97.5822V97.5824V97.5825V97.5827V97.5828V97.583V97.5831V97.5833V97.5834V97.5836V97.5837V97.5839V97.584V97.5842V97.5843V97.5844V97.5846V97.5847V97.5849V97.585V97.5852V97.5853V97.5855V97.5856V97.5858V97.5859V97.5861V97.5862V97.5863V97.5865V97.5866V97.5868V97.5869V97.5871V97.5872V97.5874V97.5875V97.5877V97.5878V97.588V97.5881V97.5883V97.5884V97.5886V97.5887V97.5889V97.589V97.5891V97.5893V97.5894V97.5896V97.5897V97.5899V97.59V97.5902V97.5903V97.5905V97.5906V97.5908V97.5909V97.5911V97.5912V97.5914V97.5915V97.5917V97.5918V97.592V97.5921V97.5923V97.5925V97.5926V97.5928V97.5929V97.5931V97.5932V97.5934V97.5935V97.5937V97.5938V97.594V97.5941V97.5943V97.5945V97.5946V97.5948V97.5949V97.5951V97.5952V97.5954V97.5956V97.5957V97.5959V97.596V97.5962V97.5963V97.5965V97.5967V97.5968V97.597V97.5971V97.5973V97.5975V97.5976V97.5978V97.5979V97.5981V97.5983V97.5984V97.5986V97.5988V97.5989V97.5991V97.5993V97.5994V97.5996V97.5998V97.5999V97.6001V97.6003V97.6004V97.6006V97.6008V97.6009V97.6011V97.6013V97.6015V97.6016V97.6018V97.602V97.6021V97.6023V97.6025V97.6027V97.6028V97.603V97.6032V97.6034V97.6036V97.6037V97.6039V97.6041V97.6043V97.6044V97.6046V97.6048V97.605V97.6052V97.6054V97.6055V97.6057V97.6059V97.6061V97.6063V97.6065V97.6067V97.6068V97.607V97.6072V97.6074V97.6076V97.6078V97.608V97.6082V97.6084V97.6086V97.6088V97.6089V97.6091V97.6093V97.6095V97.6097V97.6099V97.6101V97.6103V97.6105V97.6107V97.6109V97.6111V97.6113V97.6115V97.6117V97.6119V97.6122V97.6124V97.6126V97.6128V97.613V97.6132V97.6134V97.6136V97.6138V97.614V97.6143V97.6145V97.6147V97.6149V97.6151V97.6153V97.6155V97.6158V97.616V97.6162V97.6164V97.6167V97.6169V97.6171V97.6173V97.6175V97.6178V97.618V97.6182V97.6185V97.6187V97.6189V97.6191V97.6194V97.6196V97.6198V97.6201V97.6203V97.6206V97.6208V97.621V97.6213V97.6215V97.6217V97.622V97.6222V97.6225V97.6227V97.623V97.6232V97.6235V97.6237V97.624V97.6242V97.6245V97.6247V97.625V97.6252V97.6255V97.6257V97.626V97.6263V97.6265V97.6268V97.627V97.6273V97.6276V97.6278V97.6281V97.6284V97.6286V97.6289V97.6292V97.6294V97.6297V97.63V97.6302V97.6305V97.6308V97.6311V97.6314V97.6316V97.6319V97.6322V97.6325V97.6328V97.633V97.6333V97.6336V97.6339V97.6342V97.6345V97.6348V97.6351C13.699 101.026 16.4605 103.79 19.8486 103.79H110.442C113.83 103.79 116.591 101.026 116.591 97.6351C116.591 94.4852 118.862 90.8289 123.391 90.8289C126.779 90.8289 129.54 88.0644 129.54 84.6737C129.54 81.283 126.779 78.5185 123.391 78.5185C120.003 78.5185 117.241 81.283 117.241 84.6737V84.7217C117.192 88.104 114.388 91.4799 110.442 91.4799H19.8486C16.4244 91.4799 13.0491 88.627 13.0491 84.6737V19.9167V19.9166V19.9166V19.9166V19.9166V19.9166V19.9166V19.9165V19.9165V19.9165V19.9165V19.9165V19.9165V19.9164V19.9164V19.9164V19.9164V19.9164V19.9164V19.9163V19.9163V19.9163V19.9163V19.9162V19.9162V19.9162V19.9162V19.9161V19.9161V19.9161V19.9161V19.9161V19.916V19.916V19.916V19.916V19.916V19.916V19.9159V19.9159V19.9159V19.9159V19.9159V19.9159V19.9158V19.9158V19.9158V19.9158V19.9158V19.9157V19.9157V19.9157V19.9157V19.9157V19.9156V19.9156V19.9156V19.9156V19.9155V19.9155V19.9155V19.9155V19.9154V19.9154V19.9154V19.9154V19.9153V19.9153V19.9153V19.9153V19.9152V19.9152V19.9152V19.9152V19.9151V19.9151V19.9151V19.915V19.915V19.915V19.9149V19.9149V19.9149V19.9149V19.9148V19.9148V19.9148V19.9147V19.9147V19.9147V19.9146V19.9146V19.9145V19.9145V19.9145V19.9144V19.9144V19.9144V19.9143V19.9143V19.9143V19.9142V19.9142V19.9141V19.9141V19.9141V19.914V19.914V19.9139V19.9139V19.9138V19.9138V19.9138V19.9137V19.9137V19.9136V19.9136V19.9135V19.9135V19.9134V19.9134V19.9133V19.9133V19.9132V19.9132V19.9131V19.9131V19.913V19.913V19.9129V19.9129V19.9128V19.9128V19.9127V19.9127V19.9126V19.9126V19.9125V19.9125V19.9124V19.9123V19.9123V19.9122V19.9122V19.9121V19.9121V19.912V19.9119V19.9119V19.9118V19.9118V19.9117V19.9116V19.9116V19.9115V19.9114V19.9114V19.9113V19.9112V19.9112V19.9111V19.911V19.911V19.9109V19.9108V19.9108V19.9107V19.9106V19.9105V19.9105V19.9104V19.9103V19.9102V19.9102V19.9101V19.91V19.9099V19.9099V19.9098V19.9097V19.9096V19.9096V19.9095V19.9094V19.9093V19.9092V19.9091V19.9091V19.909V19.9089V19.9088V19.9087V19.9086V19.9086V19.9085V19.9084V19.9083V19.9082V19.9081V19.908V19.9079V19.9078V19.9077V19.9077V19.9076V19.9075V19.9074V19.9073V19.9072V19.9071V19.907V19.9069V19.9068V19.9067V19.9066V19.9065V19.9064V19.9063V19.9062V19.9061V19.906V19.9059V19.9058V19.9057V19.9055V19.9054V19.9053V19.9052V19.9051V19.905V19.9049V19.9048V19.9047V19.9045V19.9044V19.9043V19.9042V19.9041V19.904V19.9039V19.9037V19.9036V19.9035V19.9034V19.9033V19.9031V19.903V19.9029V19.9028V19.9026V19.9025V19.9024V19.9023V19.9021V19.902V19.9019V19.9017V19.9016V19.9015V19.9013V19.9012V19.9011V19.9009V19.9008V19.9007V19.9005V19.9004V19.9003V19.9001V19.9V19.8998V19.8997V19.8995V19.8994V19.8993V19.8991V19.899V19.8988V19.8987V19.8985V19.8984V19.8982V19.8981V19.8979V19.8978V19.8976V19.8975V19.8973V19.8971V19.897V19.8968V19.8967V19.8965V19.8964V19.8962V19.896V19.8959V19.8957V19.8955V19.8954V19.8952V19.895V19.8949V19.8947V19.8945V19.8944V19.8942V19.894V19.8938V19.8937V19.8935V19.8933V19.8931V19.893V19.8928V19.8926V19.8924V19.8922V19.8921V19.8919V19.8917V19.8915V19.8913V19.8911V19.891V19.8908V19.8906V19.8904V19.8902V19.89V19.8898V19.8896V19.8894V19.8892V19.889V19.8888V19.8886V19.8884V19.8882V19.888V19.8878V19.8876V19.8874V19.8872V19.887V19.8868V19.8866V19.8864V19.8862V19.886V19.8857V19.8855V19.8853V19.8851V19.8849V19.8847V19.8845V19.8842V19.884V19.8838V19.8836V19.8834V19.8831V19.8829V19.8827V19.8824V19.8822V19.882V19.8818V19.8815V19.8813V19.8811V19.8808V19.8806V19.8804V19.8801V19.8799V19.8796V19.8794V19.8792V19.8789V19.8787V19.8784V19.8782V19.8779V19.8777V19.8774V19.8772V19.8769V19.8767V19.8764V19.8762V19.8759V19.8757V19.8754V19.8752V19.8749V19.8746V19.8744V19.8741V19.8739V19.8736V19.8733V19.8731V19.8728V19.8725V19.8722V19.872V19.8717V19.8714V19.8712V19.8709V19.8706V19.8703V19.87V19.8698V19.8695V19.8692V19.8689V19.8686V19.8683V19.8681V19.8678V19.8675V19.8672V19.8669V19.8666C13.0491 16.7167 15.3197 13.0604 19.8486 13.0604H110.442C113.588 13.0604 117.24 15.3322 117.241 19.865C117.19 23.3097 119.955 26.0218 123.341 26.0218C126.729 26.0218 129.49 23.2573 129.49 19.8666C129.49 16.4759 126.729 13.7114 123.341 13.7114C119.917 13.7114 116.541 10.8585 116.541 6.9052C116.541 3.51449 113.78 0.75 110.392 0.75H19.7986C16.4105 0.75 13.649 3.51449 13.649 6.9052C13.649 10.3333 10.7985 13.7114 6.84956 13.7114Z" fill="#9896AE" stroke="#9896AE" stroke-width="0.5"/>
<path d="M683.513 28.3711V28.1211H683.263H624.239H623.989V28.3711V40.127V40.377H624.239H683.263H683.513V40.127V28.3711Z" fill="#9896AE" stroke="#9896AE" stroke-width="0.5"/>
<path d="M697.472 64.8699H697.722V64.6199V43.0664V42.8164H697.472H685.949H685.699V43.0664V53.1905H621.567V43.0664V42.8164H621.317H609.793H609.543V43.0664V89.1104V89.3604H609.793H621.317H621.567V89.1104V64.8699H685.949H691.686H697.472Z" fill="#9896AE" stroke="#9896AE" stroke-width="0.5"/>
<path d="M683.527 92.0508V91.8008H683.277H624.008H623.758V92.0508V103.317V103.567H624.008H683.277H683.527V103.317V92.0508Z" fill="#9896AE" stroke="#9896AE" stroke-width="0.5"/>
<path d="M697.718 79.3105V79.0605H697.468H686.202H685.952V79.3105V84.1258V84.1261V84.1263V84.1265V84.1268V84.127V84.1273V84.1275V84.1277V84.128V84.1282V84.1284V84.1287V84.1289V84.1291V84.1294V84.1296V84.1298V84.13V84.1303V84.1305V84.1307V84.1309V84.1312V84.1314V84.1316V84.1318V84.1321V84.1323V84.1325V84.1327V84.1329V84.1331V84.1333V84.1336V84.1338V84.134V84.1342V84.1344V84.1346V84.1348V84.135V84.1352V84.1354V84.1357V84.1359V84.1361V84.1363V84.1365V84.1367V84.1369V84.1371V84.1373V84.1375V84.1377V84.1379V84.1381V84.1383V84.1384V84.1386V84.1388V84.139V84.1392V84.1394V84.1396V84.1398V84.14V84.1402V84.1404V84.1405V84.1407V84.1409V84.1411V84.1413V84.1415V84.1416V84.1418V84.142V84.1422V84.1424V84.1426V84.1427V84.1429V84.1431V84.1433V84.1434V84.1436V84.1438V84.144V84.1441V84.1443V84.1445V84.1447V84.1448V84.145V84.1452V84.1453V84.1455V84.1457V84.1458V84.146V84.1462V84.1463V84.1465V84.1467V84.1468V84.147V84.1472V84.1473V84.1475V84.1476V84.1478V84.148V84.1481V84.1483V84.1484V84.1486V84.1488V84.1489V84.1491V84.1492V84.1494V84.1495V84.1497V84.1499V84.15V84.1502V84.1503V84.1505V84.1506V84.1508V84.1509V84.1511V84.1512V84.1514V84.1515V84.1517V84.1518V84.152V84.1521V84.1523V84.1524V84.1525V84.1527V84.1528V84.153V84.1531V84.1533V84.1534V84.1536V84.1537V84.1538V84.154V84.1541V84.1543V84.1544V84.1545V84.1547V84.1548V84.155V84.1551V84.1552V84.1554V84.1555V84.1557V84.1558V84.1559V84.1561V84.1562V84.1563V84.1565V84.1566V84.1567V84.1569V84.157V84.1571V84.1573V84.1574V84.1575V84.1577V84.1578V84.1579V84.1581V84.1582V84.1583V84.1585V84.1586V84.1587V84.1589V84.159V84.1591V84.1593V84.1594V84.1595V84.1596V84.1598V84.1599V84.16V84.1602V84.1603V84.1604V84.1605V84.1607V84.1608V84.1609V84.161V84.1612V84.1613V84.1614V84.1615V84.1617V84.1618V84.1619V84.1621V84.1622V84.1623V84.1624V84.1626V84.1627V84.1628V84.1629V84.163V84.1632V84.1633V84.1634V84.1635V84.1637V84.1638V84.1639V84.164V84.1642V84.1643V84.1644V84.1645V84.1646V84.1648V84.1649V84.165V84.1651V84.1653V84.1654V84.1655V84.1656V84.1657V84.1659V84.166V84.1661V84.1662V84.1664V84.1665V84.1666V84.1667V84.1668V84.167V84.1671V84.1672V84.1673V84.1675V84.1676V84.1677V84.1678V84.1679V84.1681V84.1682V84.1683V84.1684V84.1685V84.1687V84.1688V84.1689V84.169V84.1692V84.1693V84.1694V84.1695V84.1696V84.1698V84.1699V84.17V84.1701V84.1703V84.1704V84.1705V84.1706V84.1707V84.1709V84.171V84.1711V84.1712V84.1714V84.1715V84.1716V84.1717V84.1719V84.172V84.1721V84.1722V84.1724V84.1725V84.1726V84.1727V84.1729V84.173V84.1731V84.1732V84.1734V84.1735V84.1736V84.1737V84.1739V84.174V84.1741V84.1743V84.1744V84.1745V84.1746V84.1748V84.1749V84.175V84.1751V84.1753V84.1754V84.1755V84.1757V84.1758V84.1759V84.1761V84.1762V84.1763V84.1764V84.1766V84.1767V84.1768V84.177V84.1771V84.1772V84.1774V84.1775V84.1776V84.1778V84.1779V84.178V84.1782V84.1783V84.1785V84.1786V84.1787V84.1789V84.179V84.1791V84.1793V84.1794V84.1796V84.1797V84.1798V84.18V84.1801V84.1803V84.1804V84.1805V84.1807V84.1808V84.181V84.1811V84.1812V84.1814V84.1815V84.1817V84.1818V84.182V84.1821V84.1823V84.1824V84.1826V84.1827V84.1828V84.183V84.1831V84.1833V84.1834V84.1836V84.1837V84.1839V84.184V84.1842V84.1843V84.1845V84.1847V84.1848V84.185V84.1851V84.1853V84.1854V84.1856V84.1857V84.1859V84.1861V84.1862V84.1864V84.1865V84.1867V84.1869V84.187V84.1872V84.1873V84.1875V84.1877V84.1878V84.188V84.1882V84.1883V84.1885V84.1887V84.1888V84.189V84.1892V84.1893V84.1895V84.1897V84.1898V84.19V84.1902V84.1904V84.1905V84.1907V84.1909V84.191V84.1912V84.1914V84.1916V84.1918V84.1919V84.1921V84.1923V84.1925V84.1926V84.1928V84.193V84.1932V84.1934V84.1936V84.1937V84.1939V84.1941V84.1943V84.1945V84.1947V84.1949V84.1951V84.1953V84.1954V84.1956V84.1958V84.196V84.1962V84.1964V84.1966V84.1968V84.197V84.1972V84.1974V84.1976V84.1978V84.198V84.1982V84.1984V84.1986V84.1988V84.199V84.1992V84.1994V84.1996V84.1998V84.2V84.2003V84.2005V84.2007V84.2009V84.2011V84.2013V84.2015V84.2017V84.202V84.2022V84.2024V84.2026V84.2028V84.2031V84.2033V84.2035V84.2037V84.2039V84.2042V84.2044V84.2046V84.2048V84.2051V84.2053V84.2055V84.2058V84.206V84.2062V84.2065V84.2067V84.2069V84.2072V84.2074V84.2076V84.2079V84.2081V84.2084V84.2086V84.2088V84.2091V84.2093V84.2096V84.2098V84.21V84.2103V84.2105V84.2108V84.211V84.2112V84.2115V84.2117V84.2119V84.2122V84.2124V84.2126V84.2128V84.2131V84.2133V84.2135V84.2137V84.214V84.2142V84.2144V84.2146V84.2149V84.2151V84.2153V84.2155V84.2157V84.2159V84.2162V84.2164V84.2166V84.2168V84.217V84.2172V84.2174V84.2176V84.2179V84.2181V84.2183V84.2185V84.2187V84.2189V84.2191V84.2193V84.2195V84.2197V84.2199V84.2201V84.2203V84.2205V84.2207V84.2209V84.2211V84.2213V84.2215V84.2217V84.2219V84.2221V84.2222V84.2224V84.2226V84.2228V84.223V84.2232V84.2234V84.2236V84.2238V84.2239V84.2241V84.2243V84.2245V84.2247V84.2249V84.225V84.2252V84.2254V84.2256V84.2258V84.2259V84.2261V84.2263V84.2265V84.2266V84.2268V84.227V84.2272V84.2273V84.2275V84.2277V84.2279V84.228V84.2282V84.2284V84.2285V84.2287V84.2289V84.229V84.2292V84.2294V84.2295V84.2297V84.2299V84.23V84.2302V84.2304V84.2305V84.2307V84.2308V84.231V84.2312V84.2313V84.2315V84.2316V84.2318V84.2319V84.2321V84.2323V84.2324V84.2326V84.2327V84.2329V84.233V84.2332V84.2333V84.2335V84.2336V84.2338V84.2339V84.2341V84.2342V84.2344V84.2345V84.2347V84.2348V84.235V84.2351V84.2353V84.2354V84.2356V84.2357V84.2359V84.236V84.2362V84.2363V84.2364V84.2366V84.2367V84.2369V84.237V84.2372V84.2373V84.2374V84.2376V84.2377V84.2379V84.238V84.2381V84.2383V84.2384V84.2385V84.2387V84.2388V84.239V84.2391V84.2392V84.2394V84.2395V84.2396V84.2398V84.2399V84.24V84.2402V84.2403V84.2404V84.2406V84.2407V84.2408V84.241V84.2411V84.2412V84.2414V84.2415V84.2416V84.2418V84.2419V84.242V84.2421V84.2423V84.2424V84.2425V84.2427V84.2428V84.2429V84.2431V84.2432V84.2433V84.2434V84.2436V84.2437V84.2438V84.2439V84.2441V84.2442V84.2443V84.2444V84.2446V84.2447V84.2448V84.245V84.2451V84.2452V84.2453V84.2455V84.2456V84.2457V84.2458V84.2459V84.2461V84.2462V84.2463V84.2464V84.2466V84.2467V84.2468V84.2469V84.2471V84.2472V84.2473V84.2474V84.2475V84.2477V84.2478V84.2479V84.248V84.2482V84.2483V84.2484V84.2485V84.2487V84.2488V84.2489V84.249V84.2491V84.2493V84.2494V84.2495V84.2496V84.2497V84.2499V84.25V84.2501V84.2502V84.2504V84.2505V84.2506V84.2507V84.2508V84.251V84.2511V84.2512V84.2513V84.2514V84.2516V84.2517V84.2518V84.2519V84.2521V84.2522V84.2523V84.2524V84.2525V84.2527V84.2528V84.2529V84.253V84.2532V84.2533V84.2534V84.2535V84.2536V84.2538V84.2539V84.254V84.2541V84.2543V84.2544V84.2545V84.2546V84.2548V84.2549V84.255V84.2551V84.2553V84.2554V84.2555V84.2556V84.2558V84.2559V84.256V84.2561V84.2563V84.2564V84.2565V84.2566V84.2568V84.2569V84.257V84.2571V84.2573V84.2574V84.2575V84.2577V84.2578V84.2579V84.258V84.2582V84.2583V84.2584V84.2586V84.2587V84.2588V84.2589V84.2591V84.2592V84.2593V84.2595V84.2596V84.2597V84.2599V84.26V84.2601V84.2603V84.2604V84.2605V84.2607V84.2608V84.2609V84.2611V84.2612V84.2613V84.2615V84.2616V84.2618V84.2619V84.262V84.2622V84.2623V84.2624V84.2626V84.2627V84.2629V84.263V84.2631V84.2633V84.2634V84.2636V84.2637V84.2638V84.264V84.2641V84.2643V84.2644V84.2646V84.2647V84.2648V84.265V84.2651V84.2653V84.2654V84.2656V84.2657V84.2659V84.266V84.2662V84.2663V84.2665V84.2666V84.2668V84.2669V84.2671V84.2672V84.2674V84.2675V84.2677V84.2678V84.268V84.2681V84.2683V84.2684V84.2686V84.2688V84.2689V84.2691V84.2692V84.2694V84.2696V84.2697V84.2699V84.27V84.2702V84.2704V84.2705V84.2707V84.2708V84.271V84.2712V84.2713V84.2715V84.2717V84.2718V84.272V84.2722V84.2723V84.2725V84.2727V84.2729V84.273V84.2732V84.2734V84.2735V84.2737V84.2739V84.2741V84.2742V84.2744V84.2746V84.2748V84.275V84.2751V84.2753V84.2755V84.2757V84.2759V84.276V84.2762V84.2764V84.2766V84.2768V84.277V84.2771V84.2773V84.2775V84.2777V84.2779V84.2781V84.2783V84.2785V84.2787V84.2788V84.279V84.2792V84.2794V84.2796V84.2798V84.28V84.2802V84.2804V84.2806V84.2808V84.281V84.2812V84.2814V84.2816V84.2818V84.282V84.2822V84.2824V84.2826V84.2829V84.2831V84.2833V84.2835V84.2837V84.2839V84.2841V84.2843V84.2845V84.2848V84.285V84.2852V84.2854V84.2856V84.2859V84.2861V84.2863V84.2865V84.2867V84.287V84.2872V84.2874V84.2876V84.2879V84.2881V84.2883V84.2886V84.2888V84.289V84.2892V84.2895V84.2897V84.2899V84.2902V84.2904V84.2907V84.2909V84.2911V84.2914V84.2916V84.2919V89.1071V89.3571H686.202H691.811H697.468H697.718V89.1071V79.3105Z" fill="#9896AE" stroke="#9896AE" stroke-width="0.5"/>
</svg>
