<svg width="176" height="23" viewBox="0 0 176 23" fill="none" xmlns="http://www.w3.org/2000/svg">
<path d="M69.078 5.98242H62.8296C61.9775 5.98242 61.2842 6.60467 61.2842 7.36663C61.2842 8.08037 60.6205 8.78215 59.7056 8.78215C58.8534 8.78215 58.1602 9.4044 58.1602 10.1664V21.6139C58.1602 22.3758 58.8534 22.9982 59.7056 22.9982C60.5578 22.9982 61.251 22.3758 61.251 21.6139V10.1556C61.251 9.49706 61.7797 8.74004 62.8296 8.74004H69.078C69.9304 8.74004 70.6234 8.11779 70.6234 7.35583C70.6234 6.60407 69.9297 5.98242 69.078 5.98242Z" fill="#04005E"/>
<path d="M89.3327 18.6598V18.6613C89.3439 19.3847 88.6778 20.0955 87.7602 20.0955H75.2203C74.4843 20.0955 73.6358 19.6226 73.6358 18.6814V10.2903V10.2903V10.2903V10.2902V10.2902V10.2902V10.2902V10.2901V10.2901V10.2901V10.2901V10.2901V10.29V10.29V10.29V10.29V10.29V10.2899V10.2899V10.2899V10.2899V10.2898V10.2898V10.2898V10.2898V10.2898V10.2897V10.2897V10.2897V10.2897V10.2896V10.2896V10.2896V10.2896V10.2896V10.2895V10.2895V10.2895V10.2895V10.2895V10.2894V10.2894V10.2894V10.2894V10.2893V10.2893V10.2893V10.2893V10.2893V10.2892V10.2892V10.2892V10.2892V10.2891V10.2891V10.2891V10.2891V10.2891V10.289V10.289V10.289V10.289V10.289V10.2889V10.2889V10.2889V10.2889V10.2888V10.2888V10.2888V10.2888V10.2888V10.2887V10.2887V10.2887V10.2887V10.2886V10.2886V10.2886V10.2886V10.2886V10.2885V10.2885V10.2885V10.2885V10.2885V10.2884V10.2884V10.2884V10.2884V10.2883V10.2883V10.2883V10.2883V10.2883V10.2882V10.2882V10.2882V10.2882V10.2881V10.2881V10.2881V10.2881V10.288V10.288V10.288V10.288V10.288V10.2879V10.2879V10.2879V10.2879V10.2878V10.2878V10.2878V10.2878V10.2878V10.2877V10.2877V10.2877V10.2876V10.2876V10.2876V10.2876V10.2875V10.2875V10.2875V10.2875V10.2875V10.2874V10.2874V10.2874V10.2873V10.2873V10.2873V10.2873V10.2872V10.2872V10.2872V10.2871V10.2871V10.2871V10.2871V10.287V10.287V10.287V10.287V10.2869V10.2869V10.2869V10.2868V10.2868V10.2868V10.2867V10.2867V10.2867V10.2866V10.2866V10.2866V10.2866V10.2865V10.2865V10.2865V10.2864V10.2864V10.2864V10.2863V10.2863V10.2863V10.2862V10.2862V10.2862V10.2861V10.2861V10.2861V10.286V10.286V10.286V10.2859V10.2859V10.2859V10.2858V10.2858V10.2858V10.2857V10.2857V10.2856V10.2856V10.2856V10.2855V10.2855V10.2855V10.2854V10.2854V10.2853V10.2853V10.2853V10.2852V10.2852V10.2852V10.2851V10.2851V10.285V10.285V10.285V10.2849V10.2849V10.2848V10.2848V10.2848V10.2847V10.2847V10.2846V10.2846V10.2846V10.2845V10.2845V10.2844V10.2844V10.2843V10.2843V10.2843V10.2842V10.2842V10.2841V10.2841V10.284V10.284V10.284V10.2839V10.2839V10.2838V10.2838V10.2837V10.2837V10.2836V10.2836V10.2835V10.2835V10.2835V10.2834V10.2834V10.2833V10.2833V10.2832V10.2832V10.2831V10.2831V10.283V10.283V10.2829V10.2829V10.2828V10.2828V10.2827V10.2827V10.2826V10.2826V10.2825V10.2825V10.2824V10.2824V10.2823V10.2823V10.2822V10.2822V10.2821V10.2821V10.282V10.282V10.2819V10.2818V10.2818V10.2817V10.2817V10.2816V10.2816V10.2815V10.2815V10.2814V10.2813V10.2813V10.2812V10.2812V10.2811V10.2811V10.281V10.281V10.2809V10.2808V10.2808V10.2807V10.2807V10.2806V10.2805V10.2805V10.2804V10.2804V10.2803V10.2803V10.2802V10.2801V10.2801V10.28V10.28V10.2799V10.2798V10.2798V10.2797V10.2796V10.2796V10.2795C73.6358 9.62215 74.166 8.86545 75.2203 8.86545H87.7482C88.5462 8.86545 89.3327 9.45915 89.3327 10.2795V18.6598ZM90.8952 8.91813C90.159 8.91813 89.3105 8.44532 89.3105 7.50406C89.3105 6.74235 88.6146 6.12109 87.7602 6.12109H75.2203C74.3659 6.12109 73.67 6.74235 73.67 7.50406C73.67 8.2166 73.0043 8.91813 72.0855 8.91813C71.2309 8.91813 70.5352 9.53938 70.5352 10.3011V18.6814C70.5352 19.4431 71.2309 20.0644 72.0855 20.0644C72.8835 20.0644 73.67 20.6581 73.67 21.4784C73.67 22.2403 74.3659 22.8613 75.2203 22.8613H87.7482C88.6026 22.8613 89.2985 22.2403 89.2985 21.4784C89.2985 20.8211 89.8287 20.0644 90.883 20.0644C91.7376 20.0644 92.4333 19.4431 92.4333 18.6814V10.2903C92.4333 9.52858 91.7496 8.91813 90.8952 8.91813Z" fill="#04005E"/>
<path d="M53.7583 8.91813C53.022 8.91813 52.1735 8.44532 52.1735 7.50406C52.1735 6.74235 51.4778 6.12109 50.6232 6.12109H38.0955C37.2411 6.12109 36.5452 6.74235 36.5452 7.50406C36.5452 8.2166 35.8793 8.91813 34.9605 8.91813C34.1061 8.91813 33.4102 9.53938 33.4102 10.3011V18.6814C33.4102 19.4431 34.1061 20.0644 34.9605 20.0644C35.7584 20.0644 36.5452 20.6581 36.5452 21.4784C36.5452 22.2403 37.2411 22.8613 38.0955 22.8613H50.6232C51.4778 22.8613 52.1735 22.2403 52.1735 21.4784C52.1735 20.8211 52.704 20.0644 53.7583 20.0644C54.6126 20.0644 55.3086 19.4431 55.3086 18.6814V10.2903C55.3086 9.52736 54.6114 8.91813 53.7583 8.91813ZM50.6232 20.0955H38.0955C37.3593 20.0955 36.5108 19.6226 36.5108 18.6814V10.2903V10.2903V10.2903V10.2902V10.2902V10.2902V10.2902V10.2901V10.2901V10.2901V10.2901V10.2901V10.29V10.29V10.29V10.29V10.29V10.2899V10.2899V10.2899V10.2899V10.2898V10.2898V10.2898V10.2898V10.2898V10.2897V10.2897V10.2897V10.2897V10.2896V10.2896V10.2896V10.2896V10.2896V10.2895V10.2895V10.2895V10.2895V10.2895V10.2894V10.2894V10.2894V10.2894V10.2893V10.2893V10.2893V10.2893V10.2893V10.2892V10.2892V10.2892V10.2892V10.2891V10.2891V10.2891V10.2891V10.2891V10.289V10.289V10.289V10.289V10.289V10.2889V10.2889V10.2889V10.2889V10.2888V10.2888V10.2888V10.2888V10.2888V10.2887V10.2887V10.2887V10.2887V10.2886V10.2886V10.2886V10.2886V10.2886V10.2885V10.2885V10.2885V10.2885V10.2885V10.2884V10.2884V10.2884V10.2884V10.2883V10.2883V10.2883V10.2883V10.2883V10.2882V10.2882V10.2882V10.2882V10.2881V10.2881V10.2881V10.2881V10.288V10.288V10.288V10.288V10.288V10.2879V10.2879V10.2879V10.2879V10.2878V10.2878V10.2878V10.2878V10.2878V10.2877V10.2877V10.2877V10.2876V10.2876V10.2876V10.2876V10.2875V10.2875V10.2875V10.2875V10.2875V10.2874V10.2874V10.2874V10.2873V10.2873V10.2873V10.2873V10.2872V10.2872V10.2872V10.2871V10.2871V10.2871V10.2871V10.287V10.287V10.287V10.287V10.2869V10.2869V10.2869V10.2868V10.2868V10.2868V10.2867V10.2867V10.2867V10.2866V10.2866V10.2866V10.2866V10.2865V10.2865V10.2865V10.2864V10.2864V10.2864V10.2863V10.2863V10.2863V10.2862V10.2862V10.2862V10.2861V10.2861V10.2861V10.286V10.286V10.286V10.2859V10.2859V10.2859V10.2858V10.2858V10.2858V10.2857V10.2857V10.2856V10.2856V10.2856V10.2855V10.2855V10.2855V10.2854V10.2854V10.2853V10.2853V10.2853V10.2852V10.2852V10.2852V10.2851V10.2851V10.285V10.285V10.285V10.2849V10.2849V10.2848V10.2848V10.2848V10.2847V10.2847V10.2846V10.2846V10.2846V10.2845V10.2845V10.2844V10.2844V10.2843V10.2843V10.2843V10.2842V10.2842V10.2841V10.2841V10.284V10.284V10.284V10.2839V10.2839V10.2838V10.2838V10.2837V10.2837V10.2836V10.2836V10.2835V10.2835V10.2835V10.2834V10.2834V10.2833V10.2833V10.2832V10.2832V10.2831V10.2831V10.283V10.283V10.2829V10.2829V10.2828V10.2828V10.2827V10.2827V10.2826V10.2826V10.2825V10.2825V10.2824V10.2824V10.2823V10.2823V10.2822V10.2822V10.2821V10.2821V10.282V10.282V10.2819V10.2818V10.2818V10.2817V10.2817V10.2816V10.2816V10.2815V10.2815V10.2814V10.2813V10.2813V10.2812V10.2812V10.2811V10.2811V10.281V10.281V10.2809V10.2808V10.2808V10.2807V10.2807V10.2806V10.2805V10.2805V10.2804V10.2804V10.2803V10.2803V10.2802V10.2801V10.2801V10.28V10.28V10.2799V10.2798V10.2798V10.2797V10.2796V10.2796V10.2795C36.5108 9.62215 37.0412 8.86545 38.0955 8.86545H50.6232C51.4212 8.86545 52.2079 9.45915 52.2079 10.2795V18.6598C52.2079 19.3846 51.5406 20.0955 50.6232 20.0955Z" fill="#04005E"/>
<path d="M126.456 4.77738V4.66873H126.439C126.377 3.96021 125.71 3.39939 124.899 3.39939C124.167 3.39939 123.322 2.92855 123.322 1.99128C123.322 1.2323 122.629 0.613281 121.777 0.613281H99.9444C99.0932 0.613281 98.3999 1.2323 98.3999 1.99128C98.3999 2.70084 97.7369 3.39939 96.822 3.39939C95.9708 3.39939 95.2773 4.0184 95.2773 4.77738V18.6972C95.2773 19.4562 95.9708 20.0752 96.822 20.0752C97.6166 20.0752 98.3999 20.6664 98.3999 21.4833C98.3999 22.2423 99.0932 22.8614 99.9444 22.8614H121.789C122.641 22.8614 123.334 22.2423 123.334 21.4833V21.4833V21.4832V21.4832V21.4832V21.4832V21.4831V21.4831V21.4831V21.4831V21.4831V21.483V21.483V21.483V21.483V21.483V21.4829V21.4829V21.4829V21.4829V21.4828V21.4828V21.4828V21.4828V21.4828V21.4827V21.4827V21.4827V21.4827V21.4826V21.4826V21.4826V21.4826V21.4826V21.4825V21.4825V21.4825V21.4825V21.4825V21.4824V21.4824V21.4824V21.4824V21.4823V21.4823V21.4823V21.4823V21.4822V21.4822V21.4822V21.4822V21.4821V21.4821V21.4821V21.4821V21.4821V21.482V21.482V21.482V21.482V21.482V21.4819V21.4819V21.4819V21.4819V21.4818V21.4818V21.4818V21.4818V21.4818V21.4817V21.4817V21.4817V21.4817V21.4816V21.4816V21.4816V21.4816V21.4816V21.4815V21.4815V21.4815V21.4815V21.4815V21.4814V21.4814V21.4814V21.4814V21.4813V21.4813V21.4813V21.4813V21.4813V21.4812V21.4812V21.4812V21.4812V21.4811V21.4811V21.4811V21.4811V21.4811V21.481V21.481V21.481V21.481V21.481V21.4809V21.4809V21.4809V21.4808V21.4808V21.4808V21.4808V21.4808V21.4807V21.4807V21.4807V21.4806V21.4806V21.4806V21.4806V21.4806V21.4805V21.4805V21.4805V21.4805V21.4804V21.4804V21.4804V21.4803V21.4803V21.4803V21.4803V21.4802V21.4802V21.4802V21.4802V21.4801V21.4801V21.4801V21.48V21.48V21.48V21.48V21.4799V21.4799V21.4799V21.4798V21.4798V21.4798V21.4798V21.4797V21.4797V21.4797V21.4796V21.4796V21.4796V21.4795V21.4795V21.4795V21.4795V21.4794V21.4794V21.4793V21.4793V21.4793V21.4793V21.4792V21.4792V21.4791V21.4791V21.4791V21.4791V21.479V21.479V21.479V21.4789V21.4789V21.4788V21.4788V21.4788V21.4787V21.4787V21.4787V21.4786V21.4786V21.4786V21.4785V21.4785V21.4785V21.4784V21.4784V21.4783V21.4783V21.4783V21.4782V21.4782V21.4781V21.4781V21.4781V21.478V21.478V21.478V21.4779V21.4779V21.4778V21.4778V21.4778V21.4777V21.4777V21.4776V21.4776V21.4776V21.4775V21.4775V21.4774V21.4774V21.4773V21.4773V21.4773V21.4772V21.4772V21.4771V21.4771V21.477V21.477V21.477V21.4769V21.4769V21.4768V21.4768V21.4767V21.4767V21.4766V21.4766V21.4765V21.4765V21.4765V21.4764V21.4764V21.4763V21.4763V21.4762V21.4762V21.4761V21.4761V21.476V21.476V21.4759V21.4759V21.4758V21.4758V21.4757V21.4757V21.4756V21.4756V21.4755V21.4755V21.4754V21.4754V21.4753V21.4753V21.4752V21.4752V21.4751V21.4751V21.475V21.475V21.4749V21.4748V21.4748V21.4748V21.4747V21.4746V21.4746V21.4745V21.4745V21.4744V21.4744V21.4743V21.4743V21.4742V21.4741V21.4741V21.474V21.474V21.4739V21.4738V21.4738V21.4737V21.4737V21.4736V21.4736V21.4735V21.4734V21.4734V21.4733V21.4733V21.4732V21.4732V21.4731V21.473V21.473V21.4729V21.4728V21.4728V21.4727V21.4727V21.4726V21.4725C123.334 20.8179 123.862 20.0644 124.912 20.0644H125.478C126.016 20.0644 126.456 19.6713 126.456 19.192V18.1916V18.1915V18.1913V18.1912V18.1911V18.191V18.1908V18.1907V18.1906V18.1905V18.1903V18.1902V18.1901V18.1899V18.1898V18.1897V18.1896V18.1894V18.1893V18.1892V18.1891V18.1889V18.1888V18.1887V18.1886V18.1884V18.1883V18.1882V18.188V18.1879V18.1878V18.1877V18.1875V18.1874V18.1873V18.1872V18.187V18.1869V18.1868V18.1867V18.1865V18.1864V18.1863V18.1862V18.186V18.1859V18.1858V18.1857V18.1855V18.1854V18.1853V18.1852V18.185V18.1849V18.1848V18.1847V18.1845V18.1844V18.1843V18.1842V18.184V18.1839V18.1838V18.1836V18.1835V18.1834V18.1833V18.1831V18.183V18.1829V18.1828V18.1826V18.1825V18.1824V18.1823V18.1821V18.182V18.1819V18.1817V18.1816V18.1815V18.1814V18.1812V18.1811V18.181V18.1809V18.1807V18.1806V18.1805V18.1804V18.1802V18.1801V18.18V18.1799V18.1797V18.1796V18.1795V18.1794V18.1792V18.1791V18.179V18.1789V18.1787V18.1786V18.1785V18.1784V18.1782V18.1781V18.178V18.1779V18.1777V18.1776V18.1775V18.1773V18.1772V18.1771V18.177V18.1768V18.1767V18.1766V18.1765V18.1763V18.1762V18.1761V18.1759V18.1758V18.1757V18.1756V18.1754V18.1753V18.1752V18.1751V18.1749V18.1748V18.1747V18.1746V18.1744V18.1743V18.1742V18.1741V18.1739V18.1738V18.1737V18.1736V18.1734V18.1733V18.1732V18.1731V18.1729V18.1728V18.1727V18.1726V18.1724V18.1723V18.1722V18.1721V18.1719V18.1718V18.1717V18.1715V18.1714V18.1713V18.1712V18.171V18.1709V18.1708V18.1707V18.1705V18.1704V18.1703V18.1702V18.17V18.1699V18.1698V18.1696V18.1695V18.1694V18.1693V18.1691V18.169V18.1689V18.1688V18.1686V18.1685V18.1684V18.1683V18.1681V18.168V18.1679V18.1678V18.1676V18.1675V18.1674V18.1673V18.1671V18.167V18.1669V18.1668V18.1666V18.1665V18.1664V18.1663V18.1661V18.166V18.1659V18.1658V18.1656V18.1655V18.1654V18.1652V18.1651V18.165V18.1649V18.1647V18.1646V18.1645V18.1644V18.1642V18.1641V18.164V18.1639V18.1637V18.1636V18.1635V18.1633V18.1632V18.1631V18.163V18.1628V18.1627V18.1626V18.1625V18.1623V18.1622V18.1621V18.162V18.1618V18.1617V18.1616V18.1614V18.1613V18.1612V18.1611V18.161V18.1608V18.1607V18.1606V18.1604V18.1603V18.1602V18.1601V18.16V18.1598V18.1597V18.1596V18.1595V18.1593V18.1592V18.1591V18.1589V18.1588V18.1587V18.1586V18.1584V18.1583V18.1582V18.1581V18.1579V18.1578V18.1577V18.1576V18.1574V18.1573V18.1572V18.157V18.1569V18.1568V18.1567V18.1565V18.1564V18.1563V18.1562V18.156V18.1559V18.1558V18.1556V18.1555V18.1554V18.1553V18.1551V18.155V18.1549V18.1548V18.1546V18.1545V18.1544V18.1543V18.1541V18.154V18.1539V18.1538V18.1537V18.1535V18.1534V18.1533V18.1531V18.153V18.1529V18.1528V18.1526V18.1525V18.1524V18.1523V18.1521V18.152V18.1519V18.1518V18.1516V18.1515V18.1514V18.1512V18.1511V18.151V18.1509V18.1507V18.1506V18.1505V18.1504V18.1502V18.1501V18.15V18.1499V18.1497V18.1496V18.1495V18.1493V18.1492V18.1491V18.149V18.1488V18.1487V18.1486V18.1485V18.1483V18.1482V18.1481V18.148V18.1478V18.1477V18.1476V18.1475V18.1473V18.1472V18.1471V18.147V18.1468V18.1467V18.1466V18.1465V18.1463V18.1462V18.1461V18.146V18.1458V18.1457V18.1456V18.1455V18.1453V18.1452V18.1451V18.1449V18.1448V18.1447V18.1446V18.1444V18.1443V18.1442V18.1441V18.1439V18.1438V18.1437V18.1436V18.1434V18.1433V18.1432V18.143V18.1429V18.1428V18.1427V18.1425V18.1424V18.1423V18.1422V18.142V18.1419V18.1418V18.1417V18.1415V18.1414V18.1413V18.1412V18.141V18.1409V18.1408V18.1407V18.1405V18.1404V18.1403V18.1402V18.14V18.1399V18.1398V18.1397V18.1395V18.1394V18.1393V18.1392V18.139V18.1389V18.1388V18.1386V18.1385V18.1384V18.1383V18.1381V18.138V18.1379V18.1378V18.1376V18.1375V18.1374V18.1373V18.1371V18.137V18.1369V18.1367V18.1366V18.1365V18.1364V18.1362V18.1361V18.136V18.1359V18.1357V18.1356V18.1355V18.1354V18.1352V18.1351V18.135V18.1349V18.1347V18.1346V18.1345V18.1344V18.1342V18.1341V18.134V18.1339V18.1337V18.1336V18.1335V18.1334V18.1332V18.1331V18.133V18.1328V18.1327V18.1326V18.1325V18.1323V18.1322V18.1321V18.132V18.1318V18.1317V18.1316V18.1315V18.1313V18.1312V18.1311V18.1309V18.1308V18.1307V18.1306V18.1304V18.1303V18.1302V18.1301V18.1299V18.1298V18.1297V18.1296V18.1294V18.1293V18.1292V18.129V18.1289V18.1288V18.1287V18.1285V18.1284V18.1283V18.1282V18.128V18.1279V18.1278V18.1277V18.1276V18.1274V18.1273V18.1272V18.1271V4.77738ZM99.9444 20.0945H99.8223V20.101C99.121 20.052 98.3667 19.5828 98.3667 18.6972V4.77738V4.77736V4.77734V4.77731V4.77729V4.77727V4.77725V4.77723V4.77721V4.77718V4.77716V4.77714V4.77712V4.7771V4.77708V4.77705V4.77703V4.77701V4.77699V4.77697V4.77695V4.77692V4.7769V4.77688V4.77686V4.77684V4.77681V4.77679V4.77677V4.77675V4.77673V4.77671V4.77668V4.77666V4.77664V4.77662V4.7766V4.77658V4.77655V4.77653V4.77651V4.77649V4.77647V4.77645V4.77642V4.7764V4.77638V4.77636V4.77634V4.77632V4.77629V4.77627V4.77625V4.77623V4.77621V4.77618V4.77616V4.77614V4.77612V4.7761V4.77608V4.77605V4.77603V4.77601V4.77599V4.77597V4.77595V4.77592V4.7759V4.77588V4.77586V4.77584V4.77582V4.77579V4.77577V4.77575V4.77573V4.77571V4.77568V4.77566V4.77564V4.77562V4.7756V4.77558V4.77555V4.77553V4.77551V4.77549V4.77547V4.77545V4.77542V4.7754V4.77538V4.77536V4.77534V4.77532V4.77529V4.77527V4.77525V4.77523V4.77521V4.77518V4.77516V4.77514V4.77512V4.7751V4.77508V4.77505V4.77503V4.77501V4.77497V4.77495V4.77492V4.7749V4.77488V4.77486V4.77484V4.77482V4.77479V4.77477V4.77473V4.77471V4.77469V4.77466V4.77464V4.77462V4.77458V4.77455V4.77453V4.77451V4.77449V4.77445V4.77442V4.7744V4.77438V4.77436V4.77432V4.77429V4.77427V4.77423V4.77421V4.77419V4.77416V4.77412V4.7741V4.77408V4.77403V4.77401V4.77399V4.77395V4.77392V4.7739V4.77386V4.77384V4.77379V4.77377V4.77375V4.77371V4.77369V4.77364V4.77362V4.77358V4.77356V4.77353V4.77349V4.77347V4.77343V4.7734V4.77336V4.77334V4.77329V4.77327V4.77323V4.77319V4.77316V4.77312V4.7731V4.77306V4.77303V4.77299V4.77295V4.77292V4.77288V4.77286V4.77282V4.77277V4.77275V4.77271V4.77266V4.77264V4.7726V4.77256V4.77253V4.77249V4.77245V4.7724V4.77238V4.77234V4.77229V4.77225V4.77223V4.77219V4.77214V4.7721V4.77206V4.77203V4.77199V4.77195V4.7719V4.77186V4.77182V4.77177V4.77175V4.77171V4.77166V4.77162V4.77158V4.77153V4.77149V4.77145V4.7714V4.77136V4.77132V4.77127V4.77123V4.77119V4.77114V4.7711V4.77106V4.77101V4.77097V4.77093V4.77088V4.77084V4.7708V4.77075V4.77071V4.77067V4.7706V4.77056V4.77051V4.77047V4.77043V4.77038V4.77032V4.77027V4.77023V4.77019V4.77014V4.77008V4.77003V4.76999V4.76995V4.76988V4.76984V4.7698V4.76973V4.76969V4.76964V4.76958V4.76954V4.76949V4.76943V4.76938V4.76934V4.76927V4.76923V4.76917V4.76912V4.76908V4.76901V4.76897V4.76891V4.76886V4.7688V4.76875V4.76869V4.76864V4.76858V4.76854V4.76847V4.76841V4.76836V4.7683V4.76825V4.76819V4.76812V4.76808V4.76801V4.76797V4.76791V4.76784V4.76778V4.76773V4.76767V4.7676V4.76756V4.76749V4.76743V4.76736V4.76732V4.76725V4.76719V4.76712V4.76706V4.76701V4.76695V4.76688V4.76682V4.76675V4.76669V4.76662C98.3667 4.11202 98.8947 3.35851 99.9444 3.35851H121.789C122.573 3.35851 123.367 3.94043 123.367 4.75587V4.76662V18.6864V18.6972C123.367 19.3955 122.704 20.0945 121.789 20.0945H99.9444Z" fill="#04005E"/>
<path d="M149.945 8.91813C149.197 8.91813 148.337 8.44397 148.337 7.50406C148.337 6.74089 147.63 6.12109 146.766 6.12109H134.059C133.195 6.12109 132.488 6.74089 132.488 7.50406C132.488 8.21513 131.814 8.91813 130.879 8.91813C130.015 8.91813 129.309 9.53793 129.309 10.3011V21.4784C129.309 22.2416 130.015 22.8613 130.879 22.8613C131.743 22.8613 132.45 22.2416 132.45 21.4784V10.2903V10.2804C132.462 9.63376 133 8.87625 134.059 8.87625H146.766C147.578 8.87625 148.375 9.47136 148.375 10.2903V21.4784C148.375 22.2416 149.082 22.8613 149.945 22.8613C150.81 22.8613 151.516 22.2416 151.516 21.4784V10.2903C151.516 9.52593 150.808 8.91813 149.945 8.91813Z" fill="#04005E"/>
<path d="M1.53256 3.39802L1.53065 3.39804C0.692675 3.40971 0 4.02772 0 4.78616V18.6991C0 19.4578 0.69338 20.0765 1.54462 20.0765C2.26648 20.0765 3.1109 20.5373 3.1224 21.463V21.463V21.4631V21.4631V21.4632V21.4633V21.4633V21.4634V21.4634V21.4635V21.4635V21.4636V21.4637V21.4637V21.4638V21.4638V21.4639V21.464V21.464V21.4641V21.4641V21.4642V21.4642V21.4643V21.4643V21.4644V21.4645V21.4645V21.4646V21.4646V21.4647V21.4647V21.4648V21.4648V21.4649V21.4649V21.465V21.465V21.4651V21.4651V21.4652V21.4653V21.4653V21.4654V21.4654V21.4655V21.4655V21.4656V21.4656V21.4657V21.4657V21.4658V21.4658V21.4659V21.4659V21.466V21.466V21.4661V21.4661V21.4661V21.4662V21.4663V21.4663V21.4663V21.4664V21.4665V21.4665V21.4665V21.4666V21.4666V21.4667V21.4667V21.4668V21.4668V21.4669V21.4669V21.467V21.467V21.467V21.4671V21.4671V21.4672V21.4672V21.4673V21.4673V21.4674V21.4674V21.4675V21.4675V21.4675V21.4676V21.4676V21.4677V21.4677V21.4678V21.4678V21.4678V21.4679V21.4679V21.468V21.468V21.468V21.4681V21.4681V21.4682V21.4682V21.4683V21.4683V21.4683V21.4684V21.4684V21.4685V21.4685V21.4685V21.4686V21.4686V21.4686V21.4687V21.4687V21.4688V21.4688V21.4688V21.4689V21.4689V21.469V21.469V21.469V21.4691V21.4691V21.4692V21.4692V21.4692V21.4693V21.4693V21.4693V21.4694V21.4694V21.4695V21.4695V21.4695V21.4696V21.4696V21.4696V21.4697V21.4697V21.4698V21.4698V21.4698V21.4699V21.4699V21.47V21.47V21.47V21.47V21.4701V21.4701V21.4701V21.4702V21.4702V21.4703V21.4703V21.4703V21.4704V21.4704V21.4704V21.4705V21.4705V21.4705V21.4706V21.4706V21.4706V21.4707V21.4707V21.4708V21.4708V21.4708V21.4708V21.4709V21.4709V21.471V21.471V21.471V21.4711V21.4711V21.4711V21.4711V21.4712V21.4712V21.4713V21.4713V21.4713V21.4713V21.4714V21.4714V21.4714V21.4715V21.4715V21.4715V21.4716V21.4716V21.4716V21.4717V21.4717V21.4717V21.4718V21.4718V21.4718V21.4719V21.4719V21.4719V21.472V21.472V21.472V21.4721V21.4721V21.4721V21.4722V21.4722V21.4722V21.4723V21.4723V21.4723V21.4724V21.4724V21.4724V21.4724V21.4725V21.4725V21.4725V21.4726V21.4726V21.4726V21.4727V21.4727V21.4727V21.4728V21.4728V21.4728V21.4729V21.4729V21.4729V21.4729V21.473V21.473V21.4731V21.4731V21.4731V21.4731V21.4732V21.4732V21.4732V21.4733V21.4733V21.4733V21.4734V21.4734V21.4734V21.4734V21.4735V21.4735V21.4736V21.4736V21.4736V21.4736V21.4737V21.4737V21.4737V21.4738V21.4738V21.4738V21.4739V21.4739V21.4739V21.474V21.474V21.474V21.4741V21.4741V21.4741V21.4741V21.4742V21.4742V21.4743V21.4743V21.4743V21.4743V21.4744V21.4744V21.4744V21.4745V21.4745V21.4745V21.4746V21.4746V21.4746V21.4747V21.4747V21.4747V21.4748V21.4748V21.4748V21.4749V21.4749V21.4749V21.475V21.475V21.475V21.4751V21.4751V21.4751V21.4752V21.4752V21.4752V21.4753V21.4753V21.4753V21.4754V21.4754V21.4754V21.4755V21.4755V21.4755V21.4756V21.4756V21.4756V21.4757V21.4757V21.4758V21.4758V21.4758V21.4758V21.4759V21.4759V21.4759V21.476V21.476V21.4761V21.4761V21.4761V21.4762V21.4762V21.4762V21.4763V21.4763V21.4763V21.4764V21.4764V21.4764V21.4765V21.4765V21.4766V21.4766V21.4766V21.4767V21.4767V21.4768V21.4768V21.4768V21.4769V21.4769V21.4769V21.477V21.477V21.4771V21.4771V21.4771V21.4772V21.4772V21.4772V21.4773V21.4773V21.4774V21.4774V21.4774V21.4775V21.4775V21.4776V21.4776V21.4776V21.4777V21.4777V21.4778V21.4778V21.4778V21.4779V21.4779V21.4779V21.478V21.478V21.4781V21.4781V21.4782V21.4782V21.4782V21.4783V21.4783V21.4784V21.4784V21.4784V21.4785V21.4785V21.4786V21.4786V21.4787V21.4787V21.4788V21.4788V21.4788V21.4789V21.4789V21.479V21.479V21.4791V21.4791V21.4791V21.4792V21.4792V21.4793V21.4793V21.4794V21.4794V21.4795V21.4795V21.4796V21.4796V21.4796V21.4797V21.4797V21.4798V21.4798V21.4799V21.4799V21.48V21.48V21.4801V21.4801V21.4802V21.4802V21.4803V21.4803V21.4804V21.4804V21.4805V21.4805V21.4806V21.4806V21.4807V21.4807V21.4808V21.4808V21.4809V21.4809V21.481V21.481V21.4811V21.4811V21.4812V21.4813V21.4813V21.4813V21.4814V21.4814V21.4815V21.4816V21.4816V21.4817V21.4817V21.4818V21.4818V21.4819V21.4819V21.482V21.4821V21.4821V21.4822V21.4822V21.4823V21.4823V21.4824V21.4824V21.4825V21.4826V21.4826V21.4827V21.4827V21.4828V21.4829V21.4829V21.483V21.483V21.4831V21.4832V21.4832V21.4833V21.4833V21.4834V21.4835V21.4835V21.4836V21.4836V21.4837V21.4838V21.4838V21.4839C3.1224 22.2426 3.81578 22.8612 4.66702 22.8612H26.5118C27.3629 22.8612 28.0564 22.2426 28.0564 21.4839C28.0564 20.8297 28.5844 20.0765 29.6341 20.0765C30.4855 20.0765 31.1788 19.4578 31.1788 18.6991C31.1788 17.9404 30.4855 17.3218 29.6341 17.3218C28.7829 17.3218 28.0896 17.9404 28.0896 18.6991V18.709C28.0779 19.4093 27.4254 20.1065 26.5118 20.1065H4.66702C3.87246 20.1065 3.08922 19.5156 3.08922 18.6991V4.78616V4.78614V4.78612V4.7861V4.78607V4.78605V4.78603V4.78601V4.78599V4.78596V4.78594V4.78592V4.7859V4.78588V4.78586V4.78583V4.78581V4.78579V4.78577V4.78575V4.78573V4.7857V4.78568V4.78566V4.78564V4.78562V4.78559V4.78557V4.78555V4.78553V4.78551V4.78549V4.78546V4.78544V4.78542V4.7854V4.78538V4.78536V4.78533V4.78531V4.78529V4.78527V4.78525V4.78523V4.7852V4.78518V4.78516V4.78514V4.78512V4.7851V4.78507V4.78505V4.78503V4.78501V4.78499V4.78497V4.78494V4.78492V4.7849V4.78488V4.78486V4.78483V4.78481V4.78479V4.78477V4.78475V4.78473V4.7847V4.78468V4.78466V4.78464V4.78462V4.7846V4.78457V4.78455V4.78453V4.78451V4.78449V4.78447V4.78444V4.78442V4.7844V4.78438V4.78436V4.78433V4.78431V4.78429V4.78427V4.78425V4.78423V4.7842V4.78418V4.78416V4.78414V4.78412V4.7841V4.78407V4.78405V4.78403V4.78401V4.78399V4.78397V4.78394V4.78392V4.7839V4.78388V4.78386V4.78383V4.78381V4.78379V4.78377V4.78375V4.78373V4.7837V4.78368V4.78366V4.78364V4.78362V4.78357V4.78355V4.78353V4.78351V4.78349V4.78347V4.78344V4.7834V4.78338V4.78336V4.78333V4.78331V4.78327V4.78325V4.78323V4.7832V4.78318V4.78314V4.78312V4.7831V4.78307V4.78303V4.78301V4.78299V4.78297V4.78292V4.7829V4.78288V4.78284V4.78281V4.78279V4.78275V4.78273V4.7827V4.78266V4.78264V4.7826V4.78257V4.78255V4.78251V4.78249V4.78244V4.78242V4.7824V4.78236V4.78234V4.78229V4.78227V4.78223V4.78221V4.78216V4.78214V4.7821V4.78207V4.78203V4.78201V4.78197V4.78194V4.7819V4.78186V4.78184V4.78179V4.78177V4.78173V4.78168V4.78166V4.78162V4.7816V4.78155V4.78151V4.78149V4.78144V4.7814V4.78138V4.78134V4.78129V4.78127V4.78123V4.78118V4.78114V4.78112V4.78108V4.78103V4.78099V4.78094V4.78092V4.78088V4.78084V4.78079V4.78075V4.78073V4.78068V4.78064V4.7806V4.78055V4.78051V4.78047V4.78042V4.7804V4.78036V4.78031V4.78027V4.78023V4.78018V4.78014V4.7801V4.78005V4.78001V4.77997V4.77992V4.77988V4.77984V4.77979V4.77975V4.77971V4.77966V4.77962V4.77958V4.77951V4.77947V4.77942V4.77938V4.77934V4.77929V4.77925V4.77918V4.77914V4.7791V4.77905V4.77901V4.77895V4.7789V4.77886V4.77882V4.77877V4.77871V4.77866V4.77862V4.77855V4.77851V4.77847V4.7784V4.77836V4.77832V4.77825V4.77821V4.77816V4.7781V4.77805V4.77801V4.77795V4.7779V4.77784V4.77779V4.77773V4.77769V4.77762V4.77758V4.77751V4.77747V4.7774V4.77736V4.77729V4.77725V4.77719V4.77714V4.77708V4.77701V4.77697V4.7769V4.77686V4.77679V4.77673V4.77669V4.77662V4.77656V4.77651V4.77645V4.77638V4.77632V4.77627V4.77621V4.77614V4.77608V4.77603V4.77597V4.7759V4.77584V4.77577V4.77573V4.77566V4.7756V4.77553V4.77547V4.7754C3.08922 4.12119 3.61724 3.36803 4.66702 3.36803H26.5118C27.2446 3.36803 28.0892 3.83839 28.0896 4.77458C28.077 5.54584 28.7722 6.15279 29.6221 6.15279C30.4733 6.15279 31.1668 5.5341 31.1668 4.7754C31.1668 4.01671 30.4733 3.39802 29.6221 3.39802C28.8276 3.39802 28.0442 2.80708 28.0442 1.99066C28.0442 1.23197 27.351 0.613281 26.4998 0.613281H4.65496C3.80372 0.613281 3.11034 1.23197 3.11034 1.99066C3.11034 2.6998 2.44742 3.39802 1.53256 3.39802Z" fill="#04005E"/>
<path d="M157.755 6.12109H157.633V6.22975V8.81989V8.92854H157.755H172.363H172.485V8.81989V6.22975V6.12109H172.363H157.755Z" fill="#04005E"/>
<path d="M175.873 14.3255H175.995V14.2169V9.46803V9.35938H175.873H173.021H172.899V9.46803V11.6451H157.147V9.46803V9.35938H157.025H154.173H154.051V9.46803V19.6127V19.7214H154.173H157.025H157.147V19.6127V14.3255H173.021H174.441H175.873Z" fill="#04005E"/>
<path d="M157.696 20.1504H157.574V20.259V22.7412V22.8498H157.696H172.366H172.488V22.7412V20.259V20.1504H172.366H157.696Z" fill="#04005E"/>
<path d="M175.997 17.4524V17.3438H175.875H173.087H172.965V17.4524V18.5133V18.5134V18.5134V18.5135V18.5135V18.5136V18.5137V18.5137V18.5138V18.5138V18.5139V18.5139V18.514V18.514V18.5141V18.5141V18.5142V18.5142V18.5143V18.5143V18.5144V18.5144V18.5145V18.5145V18.5146V18.5146V18.5147V18.5147V18.5148V18.5148V18.5148V18.5149V18.515V18.515V18.515V18.5151V18.5151V18.5152V18.5152V18.5153V18.5153V18.5154V18.5154V18.5155V18.5155V18.5155V18.5156V18.5156V18.5157V18.5157V18.5158V18.5158V18.5159V18.5159V18.516V18.516V18.516V18.5161V18.5161V18.5162V18.5162V18.5162V18.5163V18.5163V18.5164V18.5164V18.5165V18.5165V18.5165V18.5166V18.5166V18.5167V18.5167V18.5167V18.5168V18.5168V18.5169V18.5169V18.517V18.517V18.517V18.5171V18.5171V18.5171V18.5172V18.5172V18.5173V18.5173V18.5173V18.5174V18.5174V18.5175V18.5175V18.5175V18.5176V18.5176V18.5176V18.5177V18.5177V18.5178V18.5178V18.5178V18.5179V18.5179V18.5179V18.518V18.518V18.518V18.5181V18.5181V18.5181V18.5182V18.5182V18.5183V18.5183V18.5183V18.5184V18.5184V18.5184V18.5185V18.5185V18.5185V18.5186V18.5186V18.5186V18.5187V18.5187V18.5187V18.5188V18.5188V18.5188V18.5189V18.5189V18.5189V18.519V18.519V18.519V18.5191V18.5191V18.5191V18.5192V18.5192V18.5192V18.5193V18.5193V18.5193V18.5193V18.5194V18.5194V18.5195V18.5195V18.5195V18.5195V18.5196V18.5196V18.5196V18.5197V18.5197V18.5197V18.5198V18.5198V18.5198V18.5198V18.5199V18.5199V18.52V18.52V18.52V18.52V18.5201V18.5201V18.5201V18.5201V18.5202V18.5202V18.5202V18.5203V18.5203V18.5203V18.5204V18.5204V18.5204V18.5205V18.5205V18.5205V18.5205V18.5206V18.5206V18.5206V18.5206V18.5207V18.5207V18.5207V18.5208V18.5208V18.5208V18.5208V18.5209V18.5209V18.5209V18.521V18.521V18.521V18.521V18.5211V18.5211V18.5211V18.5211V18.5212V18.5212V18.5212V18.5213V18.5213V18.5213V18.5213V18.5214V18.5214V18.5214V18.5215V18.5215V18.5215V18.5215V18.5216V18.5216V18.5216V18.5216V18.5217V18.5217V18.5217V18.5218V18.5218V18.5218V18.5218V18.5219V18.5219V18.5219V18.522V18.522V18.522V18.522V18.5221V18.5221V18.5221V18.5221V18.5222V18.5222V18.5222V18.5222V18.5223V18.5223V18.5223V18.5223V18.5224V18.5224V18.5224V18.5225V18.5225V18.5225V18.5225V18.5226V18.5226V18.5226V18.5226V18.5227V18.5227V18.5227V18.5228V18.5228V18.5228V18.5228V18.5229V18.5229V18.5229V18.5229V18.523V18.523V18.523V18.523V18.5231V18.5231V18.5231V18.5231V18.5232V18.5232V18.5232V18.5233V18.5233V18.5233V18.5233V18.5234V18.5234V18.5234V18.5235V18.5235V18.5235V18.5235V18.5236V18.5236V18.5236V18.5236V18.5237V18.5237V18.5237V18.5238V18.5238V18.5238V18.5238V18.5239V18.5239V18.5239V18.524V18.524V18.524V18.524V18.5241V18.5241V18.5241V18.5241V18.5242V18.5242V18.5242V18.5243V18.5243V18.5243V18.5243V18.5244V18.5244V18.5244V18.5245V18.5245V18.5245V18.5246V18.5246V18.5246V18.5246V18.5247V18.5247V18.5247V18.5248V18.5248V18.5248V18.5248V18.5249V18.5249V18.5249V18.525V18.525V18.525V18.5251V18.5251V18.5251V18.5251V18.5252V18.5252V18.5252V18.5253V18.5253V18.5253V18.5254V18.5254V18.5254V18.5255V18.5255V18.5255V18.5256V18.5256V18.5256V18.5256V18.5257V18.5257V18.5257V18.5258V18.5258V18.5258V18.5259V18.5259V18.5259V18.526V18.526V18.526V18.5261V18.5261V18.5261V18.5262V18.5262V18.5262V18.5263V18.5263V18.5263V18.5264V18.5264V18.5264V18.5265V18.5265V18.5265V18.5266V18.5266V18.5266V18.5267V18.5267V18.5268V18.5268V18.5268V18.5269V18.5269V18.5269V18.527V18.527V18.527V18.5271V18.5271V18.5271V18.5272V18.5272V18.5273V18.5273V18.5273V18.5274V18.5274V18.5274V18.5275V18.5275V18.5276V18.5276V18.5276V18.5277V18.5277V18.5278V18.5278V18.5278V18.5279V18.5279V18.528V18.528V18.528V18.5281V18.5281V18.5281V18.5282V18.5282V18.5283V18.5283V18.5283V18.5284V18.5284V18.5285V18.5285V18.5286V18.5286V18.5286V18.5287V18.5287V18.5288V18.5288V18.5288V18.5289V18.5289V18.529V18.529V18.5291V18.5291V18.5291V18.5292V18.5292V18.5293V18.5293V18.5294V18.5294V18.5295V18.5295V18.5296V18.5296V18.5296V18.5297V18.5297V18.5298V18.5298V18.5299V18.5299V18.53V18.53V18.5301V18.5301V18.5302V18.5302V18.5303V18.5303V18.5304V18.5304V18.5304V18.5305V18.5306V18.5306V18.5306V18.5307V18.5308V18.5308V18.5308V18.5309V18.5309V18.531V18.5311V18.5311V18.5312V18.5312V18.5313V18.5313V18.5314V18.5314V18.5315V18.5315V18.5316V18.5316V18.5317V18.5317V18.5318V18.5318V18.5319V18.5319V18.532V18.5321V18.5321V18.5322V18.5322V18.5323V18.5323V18.5324V18.5324V18.5325V18.5325V18.5326V18.5326V18.5327V18.5327V18.5328V18.5328V18.5329V18.5329V18.5329V18.533V18.5331V18.5331V18.5331V18.5332V18.5333V18.5333V18.5333V18.5334V18.5334V18.5335V18.5335V18.5336V18.5336V18.5337V18.5337V18.5338V18.5338V18.5338V18.5339V18.5339V18.534V18.534V18.5341V18.5341V18.5341V18.5342V18.5342V18.5343V18.5343V18.5344V18.5344V18.5344V18.5345V18.5345V18.5346V18.5346V18.5347V18.5347V18.5348V18.5348V18.5348V18.5349V18.5349V18.5349V18.535V18.535V18.5351V18.5351V18.5352V18.5352V18.5352V18.5353V18.5353V18.5354V18.5354V18.5354V18.5355V18.5355V18.5356V18.5356V18.5356V18.5357V18.5357V18.5358V18.5358V18.5358V18.5359V18.5359V18.5359V18.536V18.536V18.536V18.5361V18.5361V18.5361V18.5362V18.5362V18.5363V18.5363V18.5363V18.5364V18.5364V18.5364V18.5365V18.5365V18.5366V18.5366V18.5366V18.5366V18.5367V18.5367V18.5368V18.5368V18.5368V18.5369V18.5369V18.5369V18.537V18.537V18.537V18.5371V18.5371V18.5371V18.5372V18.5372V18.5372V18.5372V18.5373V18.5373V18.5374V18.5374V18.5374V18.5374V18.5375V18.5375V18.5376V18.5376V18.5376V18.5376V18.5377V18.5377V18.5378V18.5378V18.5378V18.5378V18.5379V18.5379V18.5379V18.538V18.538V18.538V18.5381V18.5381V18.5381V18.5381V18.5382V18.5382V18.5382V18.5383V18.5383V18.5383V18.5384V18.5384V18.5384V18.5384V18.5385V18.5385V18.5385V18.5386V18.5386V18.5386V18.5386V18.5387V18.5387V18.5387V18.5388V18.5388V18.5388V18.5389V18.5389V18.5389V18.5389V18.539V18.539V18.539V18.5391V18.5391V18.5391V18.5391V18.5392V18.5392V18.5392V18.5392V18.5393V18.5393V18.5393V18.5394V18.5394V18.5394V18.5394V18.5395V18.5395V18.5395V18.5396V18.5396V18.5396V18.5396V18.5397V18.5397V18.5397V18.5397V18.5398V18.5398V18.5398V18.5399V18.5399V18.5399V18.5399V18.54V18.54V18.54V18.5401V18.5401V18.5401V18.5401V18.5402V18.5402V18.5402V18.5402V18.5403V18.5403V18.5403V18.5404V18.5404V18.5404V18.5404V18.5404V18.5405V18.5405V18.5405V18.5406V18.5406V18.5406V18.5406V18.5407V18.5407V18.5407V18.5407V18.5408V18.5408V18.5408V18.5409V18.5409V18.5409V18.5409V18.541V18.541V18.541V18.5411V18.5411V18.5411V18.5411V18.5412V18.5412V18.5412V18.5412V18.5412V18.5413V18.5413V18.5413V18.5414V18.5414V18.5414V18.5414V18.5415V18.5415V18.5415V18.5416V18.5416V18.5416V18.5416V18.5417V18.5417V18.5417V18.5417V18.5418V18.5418V18.5418V18.5419V18.5419V18.5419V18.5419V18.542V18.542V18.542V18.5421V18.5421V18.5421V18.5421V18.5422V18.5422V18.5422V18.5422V18.5423V18.5423V18.5423V18.5424V18.5424V18.5424V18.5424V18.5425V18.5425V18.5425V18.5426V18.5426V18.5426V18.5426V18.5427V18.5427V18.5427V18.5427V18.5428V18.5428V18.5428V18.5429V18.5429V18.5429V18.543V18.543V18.543V18.5431V18.5431V18.5431V18.5431V18.5432V18.5432V18.5432V18.5432V18.5433V18.5433V18.5434V18.5434V18.5434V18.5434V18.5435V18.5435V18.5435V18.5436V18.5436V18.5436V18.5437V18.5437V18.5437V18.5437V18.5438V18.5438V18.5438V18.5439V18.5439V18.5439V18.544V18.544V18.544V18.5441V18.5441V18.5441V18.5442V18.5442V18.5442V18.5443V18.5443V18.5443V18.5444V18.5444V18.5444V18.5445V18.5445V18.5445V18.5446V18.5446V18.5446V18.5447V18.5447V18.5447V18.5448V18.5448V18.5448V18.5449V18.5449V18.5449V18.545V18.545V18.5451V18.5451V18.5451V18.5451V18.5452V18.5452V18.5452V18.5453V18.5453V18.5454V18.5454V18.5454V18.5455V18.5455V18.5456V18.5456V18.5456V18.5457V18.5457V18.5457V18.5458V18.5458V18.5459V18.5459V18.5459V18.546V18.546V18.546V18.5461V18.5461V18.5462V18.5462V18.5462V18.5463V18.5463V18.5464V18.5464V18.5464V18.5465V18.5465V18.5466V18.5466V18.5466V18.5467V18.5467V18.5468V18.5468V18.5468V18.5469V18.5469V18.547V18.547V18.5471V18.5471V18.5471V18.5472V18.5472V18.5473V18.5473V18.5474V18.5474V18.5474V18.5475V18.5475V18.5476V18.5476V18.5477V18.5477V18.5477V18.5478V18.5479V18.5479V18.5479V18.548V18.548V18.5481V18.5481V18.5482V18.5482V18.5483V18.5483V18.5484V18.5484V18.5485V18.5485V18.5485V18.5486V18.5486V18.5487V18.5487V18.5488V18.5488V18.5489V18.5489V18.549V18.5491V18.5491V18.5491V18.5492V18.5492V18.5493V18.5494V18.5494V18.5494V18.5495V18.5495V18.5496V18.5497V18.5497V18.5498V18.5498V18.5499V18.5499V19.6109V19.7195H173.087H174.475H175.875H175.997V19.6109V17.4524Z" fill="#04005E"/>
</svg>
