<svg width="870" height="93" viewBox="0 0 870 93" fill="none" xmlns="http://www.w3.org/2000/svg">
<path fill-rule="evenodd" clip-rule="evenodd" d="M711.551 85.6934C711.551 82.0527 714.502 79.1016 718.142 79.1016C714.502 79.1016 711.551 76.1504 711.551 72.5098C711.551 76.1504 708.6 79.1016 704.959 79.1016C708.6 79.1016 711.551 82.0527 711.551 85.6934Z" fill="#75FEFA"/>
<path fill-rule="evenodd" clip-rule="evenodd" d="M685.183 85.6934C685.183 82.0527 688.135 79.1016 691.775 79.1016C688.135 79.1016 685.183 76.1504 685.183 72.5098C685.183 76.1504 682.232 79.1016 678.592 79.1016C682.232 79.1016 685.183 82.0527 685.183 85.6934Z" fill="#75FEFA"/>
<path fill-rule="evenodd" clip-rule="evenodd" d="M751.101 32.9591C751.101 29.3184 754.052 26.3673 757.693 26.3673C754.052 26.3673 751.101 23.4161 751.101 19.7755C751.101 23.4161 748.15 26.3673 744.51 26.3673C748.15 26.3673 751.101 29.3184 751.101 32.9591Z" fill="#75FEFA"/>
<path fill-rule="evenodd" clip-rule="evenodd" d="M737.918 32.9591C737.918 29.3184 740.869 26.3673 744.51 26.3673C740.869 26.3673 737.918 23.4161 737.918 19.7755C737.918 23.4161 734.967 26.3673 731.326 26.3673C734.967 26.3673 737.918 29.3184 737.918 32.9591Z" fill="#75FEFA"/>
<path fill-rule="evenodd" clip-rule="evenodd" d="M724.734 59.3262C724.734 55.6856 727.685 52.7344 731.326 52.7344C727.685 52.7344 724.734 49.7833 724.734 46.1426C724.734 49.7833 721.783 52.7344 718.142 52.7344C721.783 52.7344 724.734 55.6856 724.734 59.3262Z" fill="#75FEFA"/>
<path d="M764.285 85.4492L751.101 85.4492L751.101 32.7149L764.285 32.7149L764.285 85.4492Z" fill="#75FEFA"/>
<rect x="685.184" y="72.5098" width="13.1836" height="52.7343" transform="rotate(-180 685.184 72.5098)" fill="#75FEFA"/>
<rect x="737.918" y="45.8984" width="13.1836" height="13.1836" transform="rotate(-180 737.918 45.8984)" fill="#75FEFA"/>
<rect x="724.734" y="72.2656" width="13.1836" height="13.1836" transform="rotate(-180 724.734 72.2656)" fill="#75FEFA"/>
<path d="M704.47 92.2852L691.287 92.2852L691.287 79.1016L704.47 79.1016L704.47 92.2852Z" fill="#75FEFA"/>
<circle cx="691.775" cy="85.6934" r="6.59178" transform="rotate(-180 691.775 85.6934)" fill="#75FEFA"/>
<circle cx="744.51" cy="19.7754" r="6.59178" transform="rotate(-180 744.51 19.7754)" fill="#75FEFA"/>
<path d="M751.101 85.6934C751.101 82.0528 754.052 79.1016 757.692 79.1016C761.333 79.1016 764.284 82.0528 764.284 85.6934C764.284 89.3339 761.333 92.2852 757.692 92.2852C754.052 92.2852 751.101 89.3339 751.101 85.6934Z" fill="#75FEFA"/>
<circle cx="678.592" cy="72.5098" r="6.59178" transform="rotate(-180 678.592 72.5098)" fill="#75FEFA"/>
<circle cx="678.592" cy="19.7754" r="6.59178" transform="rotate(-180 678.592 19.7754)" fill="#75FEFA"/>
<circle cx="757.693" cy="32.959" r="6.59178" transform="rotate(-180 757.693 32.959)" fill="#75FEFA"/>
<circle cx="704.959" cy="85.6934" r="6.59178" transform="rotate(-180 704.959 85.6934)" fill="#75FEFA"/>
<path d="M711.551 59.3262C711.551 55.6856 714.502 52.7344 718.142 52.7344C721.783 52.7344 724.734 55.6856 724.734 59.3262C724.734 62.9667 721.783 65.918 718.142 65.918C714.502 65.918 711.551 62.9667 711.551 59.3262Z" fill="#75FEFA"/>
<path d="M711.551 72.5098C711.551 68.8692 714.502 65.918 718.142 65.918C721.783 65.918 724.734 68.8692 724.734 72.5098C724.734 76.1503 721.783 79.1016 718.142 79.1016C714.502 79.1016 711.551 76.1503 711.551 72.5098Z" fill="#75FEFA"/>
<path d="M724.734 46.1426C724.734 42.5021 727.685 39.5509 731.326 39.5509C734.966 39.5509 737.918 42.5021 737.918 46.1426C737.918 49.7832 734.966 52.7344 731.326 52.7344C727.685 52.7344 724.734 49.7832 724.734 46.1426Z" fill="#75FEFA"/>
<circle cx="731.326" cy="32.959" r="6.59178" transform="rotate(-180 731.326 32.959)" fill="#75FEFA"/>
<path fill-rule="evenodd" clip-rule="evenodd" d="M816.55 85.6934C816.55 82.0527 819.502 79.1016 823.142 79.1016C819.502 79.1016 816.55 76.1504 816.55 72.5098C816.55 76.1504 813.599 79.1016 809.959 79.1016C813.599 79.1016 816.55 82.0527 816.55 85.6934Z" fill="#75FEFA"/>
<path fill-rule="evenodd" clip-rule="evenodd" d="M790.183 85.6934C790.183 82.0527 793.134 79.1016 796.775 79.1016C793.134 79.1016 790.183 76.1504 790.183 72.5098C790.183 76.1504 787.232 79.1016 783.591 79.1016C787.232 79.1016 790.183 82.0527 790.183 85.6934Z" fill="#75FEFA"/>
<path fill-rule="evenodd" clip-rule="evenodd" d="M856.101 32.9591C856.101 29.3184 859.052 26.3673 862.693 26.3673C859.052 26.3673 856.101 23.4161 856.101 19.7755C856.101 23.4161 853.15 26.3673 849.509 26.3673C853.15 26.3673 856.101 29.3184 856.101 32.9591Z" fill="#75FEFA"/>
<path fill-rule="evenodd" clip-rule="evenodd" d="M842.918 32.9591C842.918 29.3184 845.869 26.3673 849.509 26.3673C845.869 26.3673 842.918 23.4161 842.918 19.7755C842.918 23.4161 839.966 26.3673 836.326 26.3673C839.966 26.3673 842.918 29.3184 842.918 32.9591Z" fill="#75FEFA"/>
<path fill-rule="evenodd" clip-rule="evenodd" d="M829.734 59.3262C829.734 55.6856 832.685 52.7344 836.326 52.7344C832.685 52.7344 829.734 49.7833 829.734 46.1426C829.734 49.7833 826.783 52.7344 823.142 52.7344C826.783 52.7344 829.734 55.6856 829.734 59.3262Z" fill="#75FEFA"/>
<path d="M869.285 85.4492L856.101 85.4492L856.101 32.7149L869.285 32.7149L869.285 85.4492Z" fill="#75FEFA"/>
<rect x="790.183" y="72.5098" width="13.1836" height="52.7343" transform="rotate(-180 790.183 72.5098)" fill="#75FEFA"/>
<rect x="842.918" y="45.8984" width="13.1836" height="13.1836" transform="rotate(-180 842.918 45.8984)" fill="#75FEFA"/>
<rect x="829.734" y="72.2656" width="13.1836" height="13.1836" transform="rotate(-180 829.734 72.2656)" fill="#75FEFA"/>
<path d="M809.47 92.2852L796.287 92.2852L796.287 79.1016L809.47 79.1016L809.47 92.2852Z" fill="#75FEFA"/>
<path d="M822.166 13.1836L808.982 13.1836L808.982 2.26893e-05L822.166 2.38419e-05L822.166 13.1836Z" fill="#75FEFA"/>
<circle cx="796.775" cy="85.6934" r="6.59178" transform="rotate(-180 796.775 85.6934)" fill="#75FEFA"/>
<circle cx="809.47" cy="6.59181" r="6.59178" transform="rotate(-180 809.47 6.59181)" fill="#75FEFA"/>
<circle cx="849.51" cy="19.7754" r="6.59178" transform="rotate(-180 849.51 19.7754)" fill="#75FEFA"/>
<path d="M856.101 85.6934C856.101 82.0528 859.053 79.1016 862.693 79.1016C866.334 79.1016 869.285 82.0528 869.285 85.6934C869.285 89.3339 866.334 92.2852 862.693 92.2852C859.053 92.2852 856.101 89.3339 856.101 85.6934Z" fill="#75FEFA"/>
<circle cx="783.592" cy="72.5098" r="6.59178" transform="rotate(-180 783.592 72.5098)" fill="#75FEFA"/>
<circle cx="783.592" cy="19.7754" r="6.59178" transform="rotate(-180 783.592 19.7754)" fill="#75FEFA"/>
<circle cx="862.693" cy="32.959" r="6.59178" transform="rotate(-180 862.693 32.959)" fill="#75FEFA"/>
<circle cx="809.959" cy="85.6934" r="6.59178" transform="rotate(-180 809.959 85.6934)" fill="#75FEFA"/>
<circle cx="822.654" cy="6.59181" r="6.59178" transform="rotate(-180 822.654 6.59181)" fill="#75FEFA"/>
<path d="M816.551 59.3262C816.551 55.6856 819.502 52.7344 823.142 52.7344C826.783 52.7344 829.734 55.6856 829.734 59.3262C829.734 62.9667 826.783 65.918 823.142 65.918C819.502 65.918 816.551 62.9667 816.551 59.3262Z" fill="#75FEFA"/>
<path d="M816.551 72.5098C816.551 68.8692 819.502 65.918 823.142 65.918C826.783 65.918 829.734 68.8692 829.734 72.5098C829.734 76.1503 826.783 79.1016 823.142 79.1016C819.502 79.1016 816.551 76.1503 816.551 72.5098Z" fill="#75FEFA"/>
<path d="M829.734 46.1426C829.734 42.5021 832.685 39.5509 836.326 39.5509C839.966 39.5509 842.918 42.5021 842.918 46.1426C842.918 49.7832 839.966 52.7344 836.326 52.7344C832.685 52.7344 829.734 49.7832 829.734 46.1426Z" fill="#75FEFA"/>
<circle cx="836.326" cy="32.959" r="6.59178" transform="rotate(-180 836.326 32.959)" fill="#75FEFA"/>
<path d="M573.485 26.3672C569.845 26.3672 566.894 30.0562 566.894 34.6069L566.894 84.0453C566.894 88.596 569.845 92.285 573.485 92.285C577.126 92.285 580.077 88.596 580.077 84.0453L580.077 34.6069C580.077 30.0562 577.126 26.3672 573.485 26.3672Z" fill="#75FEFA"/>
<path d="M580.077 19.7754C580.077 23.4159 583.028 26.3672 586.669 26.3672L639.403 26.3672C643.044 26.3672 645.995 23.4159 645.995 19.7754C645.995 16.1349 643.044 13.1836 639.403 13.1836L586.669 13.1836C583.028 13.1836 580.077 16.1349 580.077 19.7754Z" fill="#75FEFA"/>
<path d="M580.077 59.3262C580.077 62.9667 583.028 65.918 586.669 65.918L639.403 65.918C643.044 65.918 645.995 62.9667 645.995 59.3262C645.995 55.6856 643.044 52.7344 639.403 52.7344L586.669 52.7344C583.028 52.7344 580.077 55.6856 580.077 59.3262Z" fill="#75FEFA"/>
<path d="M645.941 46.1426C646.148 51.8067 641.354 52.8971 638.93 52.7344L645.941 59.3262C646.564 53.8574 650.874 52.653 652.951 52.7344L645.941 46.1426Z" fill="#75FEFA"/>
<path d="M580.007 19.7754C580.215 25.4395 575.42 26.53 572.997 26.3672L580.007 32.959C580.63 27.4902 584.94 26.2858 587.017 26.3672L580.007 19.7754Z" fill="#75FEFA"/>
<path d="M646.065 19.7754C645.857 25.4395 650.652 26.53 653.075 26.3672L646.065 32.959C645.442 27.4902 641.132 26.2858 639.055 26.3672L646.065 19.7754Z" fill="#75FEFA"/>
<circle r="6.59178" transform="matrix(-1 1.74846e-07 1.74846e-07 1 639.403 59.3262)" fill="#75FEFA"/>
<circle r="6.59178" transform="matrix(-1 1.74846e-07 1.74846e-07 1 652.587 32.959)" fill="#75FEFA"/>
<circle r="6.59178" transform="matrix(-1 1.74846e-07 1.74846e-07 1 652.587 46.1426)" fill="#75FEFA"/>
<rect width="13.1836" height="13.1836" transform="matrix(-1 1.74846e-07 1.74846e-07 1 659.178 32.7148)" fill="#75FEFA"/>
<rect x="395.507" y="85.4492" width="13.1836" height="51.7577" transform="rotate(-180 395.507 85.4492)" fill="#75FEFA"/>
<rect x="395.507" y="26.3672" width="13.1836" height="65.9179" rx="6.59178" transform="rotate(-90 395.507 26.3672)" fill="#75FEFA"/>
<circle cx="388.915" cy="85.6934" r="6.59178" transform="rotate(-180 388.915 85.6934)" fill="#75FEFA"/>
<circle cx="388.915" cy="32.959" r="6.59178" transform="rotate(-180 388.915 32.959)" fill="#75FEFA"/>
<path d="M395.507 32.959C395.299 27.2949 400.094 26.2044 402.517 26.3672L395.507 19.7754C394.884 25.2441 390.574 26.4486 388.497 26.3672L395.507 32.959Z" fill="#75FEFA"/>
<rect x="13.1836" y="92.7734" width="13.1836" height="79.1014" rx="6.59179" transform="rotate(-180 13.1836 92.7734)" fill="#75FEFA"/>
<rect x="92.2844" y="92.7734" width="13.1836" height="39.5507" rx="6.59179" transform="rotate(-180 92.2844 92.7734)" fill="#75FEFA"/>
<rect x="13.1833" y="53.2227" width="13.1836" height="65.9179" rx="6.59178" transform="rotate(-90 13.1833 53.2227)" fill="#75FEFA"/>
<rect x="92.2847" y="40.0391" width="13.1836" height="26.3671" rx="6.59179" transform="rotate(-180 92.2847 40.0391)" fill="#75FEFA"/>
<path d="M79.1011 59.8144C79.2964 54.1504 74.7879 53.0599 72.5093 53.2226L79.1011 46.6309C79.687 52.0996 83.7397 53.304 85.6928 53.2226L79.1011 59.8144Z" fill="#75FEFA"/>
<path d="M79.1011 46.6308C78.9058 40.9668 83.4142 39.8763 85.6929 40.0391L79.1011 33.4473C78.5152 38.916 74.4624 40.1204 72.5093 40.0391L79.1011 46.6308Z" fill="#75FEFA"/>
<rect x="65.9177" y="53.2227" width="13.1836" height="13.1836" rx="6.59178" transform="rotate(-90 65.9177 53.2227)" fill="#75FEFA"/>
<rect x="79.1011" y="40.0391" width="13.1836" height="13.1836" rx="6.59178" transform="rotate(-90 79.1011 40.0391)" fill="#75FEFA"/>
<path d="M474.608 19.7754C474.608 16.1348 477.56 13.1836 481.2 13.1836H533.934C537.575 13.1836 540.526 16.1348 540.526 19.7754C540.526 23.4159 537.575 26.3672 533.934 26.3672H481.2C477.56 26.3672 474.608 23.4159 474.608 19.7754Z" fill="#75FEFA"/>
<path d="M468.017 79.1016C464.376 79.1016 461.425 76.1503 461.425 72.5098V32.9591C461.425 29.3185 464.376 26.3673 468.017 26.3673C471.657 26.3673 474.609 29.3185 474.609 32.9591V72.5098C474.609 76.1503 471.657 79.1016 468.017 79.1016Z" fill="#75FEFA"/>
<path d="M547.536 79.1016C543.665 79.1016 540.526 76.1503 540.526 72.5098V32.9591C540.526 29.3185 543.665 26.3673 547.536 26.3673C551.408 26.3673 554.547 29.3185 554.547 32.9591V72.5098C554.547 76.1503 551.408 79.1016 547.536 79.1016Z" fill="#75FEFA"/>
<path d="M474.608 85.6933C474.608 82.0528 477.56 79.1016 481.2 79.1016H533.934C537.575 79.1016 540.526 82.0528 540.526 85.6933C540.526 89.3339 537.575 92.2851 533.934 92.2851H481.2C477.56 92.2851 474.608 89.3339 474.608 85.6933Z" fill="#75FEFA"/>
<path d="M540.526 32.959C540.734 27.2949 535.939 26.2044 533.516 26.3672L540.526 19.7754C541.149 25.2441 545.459 26.4486 547.536 26.3672L540.526 32.959Z" fill="#75FEFA"/>
<path d="M474.538 85.6933C474.746 80.0293 469.951 78.9388 467.528 79.1016L474.538 72.5098C475.162 77.9785 479.472 79.1829 481.549 79.1016L474.538 85.6933Z" fill="#75FEFA"/>
<path d="M540.596 85.6933C540.388 80.0293 545.183 78.9388 547.606 79.1016L540.596 72.5098C539.973 77.9785 535.663 79.1829 533.586 79.1016L540.596 85.6933Z" fill="#75FEFA"/>
<path d="M474.783 32.959C474.575 27.2949 479.37 26.2044 481.793 26.3672L474.783 19.7754C474.16 25.2441 469.849 26.4486 467.772 26.3672L474.783 32.959Z" fill="#75FEFA"/>
<rect x="244.14" y="85.9375" width="13.1836" height="52.7343" transform="rotate(-180 244.14 85.9375)" fill="#75FEFA"/>
<circle cx="237.548" cy="86.1816" r="6.59178" transform="rotate(-180 237.548 86.1816)" fill="#75FEFA"/>
<circle cx="237.548" cy="33.4473" r="6.59178" transform="rotate(-180 237.548 33.4473)" fill="#75FEFA"/>
<rect x="205.957" y="26.3672" width="13.1836" height="63.2811" transform="rotate(-90 205.957 26.3672)" fill="#75FEFA"/>
<ellipse cx="205.664" cy="19.7754" rx="6.59178" ry="7.91013" transform="rotate(-90 205.664 19.7754)" fill="#75FEFA"/>
<ellipse cx="268.944" cy="19.7754" rx="6.59178" ry="7.91013" transform="rotate(-90 268.944 19.7754)" fill="#75FEFA"/>
<path d="M173.386 86.1817C173.386 83.6457 175.442 81.5899 177.978 81.5899C180.514 81.5899 182.57 83.6457 182.57 86.1817C182.57 88.7176 180.514 90.7734 177.978 90.7734C175.442 90.7734 173.386 88.7176 173.386 86.1817Z" fill="#75FEFA" stroke="#75FEFA" stroke-width="4"/>
<circle cx="152.321" cy="86.6887" r="4.08474" transform="rotate(-180 152.321 86.6887)" fill="#75FEFA" stroke="#75FEFA" stroke-width="4"/>
<circle cx="138.935" cy="86.6887" r="4.08474" transform="rotate(-180 138.935 86.6887)" fill="#75FEFA" stroke="#75FEFA" stroke-width="4"/>
<path d="M120.652 86.1817C120.652 83.6457 122.708 81.5899 125.244 81.5899C127.78 81.5899 129.836 83.6457 129.836 86.1817C129.836 88.7176 127.78 90.7734 125.244 90.7734C122.708 90.7734 120.652 88.7176 120.652 86.1817Z" fill="#75FEFA" stroke="#75FEFA" stroke-width="4"/>
<circle cx="125.549" cy="59.9162" r="4.08474" transform="rotate(-180 125.549 59.9162)" fill="#75FEFA" stroke="#75FEFA" stroke-width="4"/>
<path d="M107.469 72.9981C107.469 70.4621 109.525 68.4063 112.061 68.4063C114.597 68.4063 116.652 70.4621 116.652 72.9981C116.652 75.534 114.597 77.5898 112.061 77.5898C109.525 77.5898 107.469 75.534 107.469 72.9981Z" fill="#75FEFA" stroke="#75FEFA" stroke-width="4"/>
<circle cx="111.553" cy="59.9162" r="4.08474" transform="rotate(-180 111.553 59.9162)" fill="#75FEFA" stroke="#75FEFA" stroke-width="4"/>
<path d="M186.57 72.9981C186.57 70.4621 188.626 68.4063 191.162 68.4063C193.698 68.4063 195.753 70.4621 195.753 72.9981C195.753 75.534 193.698 77.5898 191.162 77.5898C188.626 77.5898 186.57 75.534 186.57 72.9981Z" fill="#75FEFA" stroke="#75FEFA" stroke-width="4"/>
<circle cx="178.486" cy="59.9162" r="4.08474" transform="rotate(-180 178.486 59.9162)" fill="#75FEFA" stroke="#75FEFA" stroke-width="4"/>
<path d="M186.57 33.4473C186.57 30.9113 188.626 28.8555 191.162 28.8555C193.698 28.8555 195.753 30.9113 195.753 33.4473C195.753 35.9832 193.698 38.0391 191.162 38.0391C188.626 38.0391 186.57 35.9832 186.57 33.4473Z" fill="#75FEFA" stroke="#75FEFA" stroke-width="4"/>
<circle cx="152.321" cy="19.7571" r="4.08474" transform="rotate(-180 152.321 19.7571)" fill="#75FEFA" stroke="#75FEFA" stroke-width="4"/>
<circle cx="138.935" cy="19.7571" r="4.08474" transform="rotate(-180 138.935 19.7571)" fill="#75FEFA" stroke="#75FEFA" stroke-width="4"/>
<path d="M120.652 20.2637C120.652 17.7277 122.708 15.6719 125.244 15.6719C127.78 15.6719 129.836 17.7277 129.836 20.2637C129.836 22.7997 127.78 24.8555 125.244 24.8555C122.708 24.8555 120.652 22.7996 120.652 20.2637ZM173.386 20.2637C173.386 17.7277 175.442 15.6719 177.978 15.6719C180.514 15.6719 182.57 17.7277 182.57 20.2637C182.57 22.7997 180.514 24.8555 177.978 24.8555C175.442 24.8555 173.386 22.7997 173.386 20.2637Z" fill="#75FEFA" stroke="#75FEFA" stroke-width="4"/>
<path d="M107.469 33.4473C107.469 30.9113 109.525 28.8555 112.061 28.8555C114.597 28.8555 116.652 30.9113 116.652 33.4473C116.652 35.9832 114.597 38.0391 112.061 38.0391C109.525 38.0391 107.469 35.9832 107.469 33.4473Z" fill="#75FEFA" stroke="#75FEFA" stroke-width="4"/>
<circle cx="138.935" cy="59.9162" r="4.08474" transform="rotate(-180 138.935 59.9162)" fill="#75FEFA" stroke="#75FEFA" stroke-width="4"/>
<circle cx="152.321" cy="59.9162" r="4.08474" transform="rotate(-180 152.321 59.9162)" fill="#75FEFA" stroke="#75FEFA" stroke-width="4"/>
<circle cx="165.099" cy="59.9162" r="4.08474" transform="rotate(-180 165.099 59.9162)" fill="#75FEFA" stroke="#75FEFA" stroke-width="4"/>
<rect x="177.734" y="92.7734" width="52.246" height="13.1836" transform="rotate(-180 177.734 92.7734)" fill="#75FEFA"/>
<rect x="178.711" y="66.4062" width="67.3827" height="12.6953" transform="rotate(-180 178.711 66.4062)" fill="#75FEFA"/>
<rect x="105.469" y="72.6934" width="12.778" height="12.1695" transform="rotate(-90 105.469 72.6934)" fill="#75FEFA"/>
<path d="M178.222 26.8555L125.488 26.8555L125.488 13.6719L178.222 13.6719L178.222 26.8555Z" fill="#75FEFA"/>
<rect x="185.07" y="72.7422" width="39.039" height="12.1836" transform="rotate(-90 185.07 72.7422)" fill="#75FEFA" stroke="#75FEFA"/>
<path d="M118.652 33.4472C118.457 27.7832 122.965 26.6927 125.244 26.8555L118.652 20.2637C118.066 25.7324 114.013 26.9368 112.06 26.8555L118.652 33.4472Z" fill="#75FEFA"/>
<path d="M118.652 72.998C118.457 67.334 122.965 66.2435 125.244 66.4062L118.652 59.8145C118.066 65.2832 114.013 66.4876 112.06 66.4062L118.652 72.998Z" fill="#75FEFA"/>
<path d="M184.57 86.1816C184.375 80.5176 188.883 79.4271 191.162 79.5898L184.57 72.998C183.984 78.4668 179.931 79.6712 177.978 79.5898L184.57 86.1816Z" fill="#75FEFA"/>
<path d="M184.555 60.4355C184.36 54.7715 188.868 53.681 191.147 53.8437L184.555 47.252C183.969 52.7207 179.916 53.9251 177.963 53.8437L184.555 60.4355Z" fill="#75FEFA"/>
<path d="M177.978 26.8555C183.642 26.6602 184.733 31.1686 184.57 33.4473L191.162 26.8555C185.693 26.2695 184.489 22.2168 184.57 20.2637L177.978 26.8555Z" fill="#75FEFA"/>
<path d="M112.06 79.5899C117.724 79.3945 118.815 83.903 118.652 86.1816L125.244 79.5899C119.775 79.0039 118.571 74.9512 118.652 72.9981L112.06 79.5899Z" fill="#75FEFA"/>
<path d="M177.978 66.4063C183.642 66.2109 184.733 70.7194 184.57 72.998L191.162 66.4063C185.693 65.8203 184.489 61.7676 184.57 59.8145L177.978 66.4063Z" fill="#75FEFA"/>
<path d="M301.222 20.2637C301.222 22.7996 299.166 24.8554 296.63 24.8554C294.094 24.8554 292.038 22.7996 292.038 20.2637C292.038 17.7277 294.094 15.6719 296.63 15.6719C299.166 15.6719 301.222 17.7277 301.222 20.2637Z" fill="#75FEFA" stroke="#75FEFA" stroke-width="4"/>
<circle cx="322.287" cy="19.7566" r="4.08474" fill="#75FEFA" stroke="#75FEFA" stroke-width="4"/>
<circle cx="335.673" cy="19.7566" r="4.08474" fill="#75FEFA" stroke="#75FEFA" stroke-width="4"/>
<path d="M353.956 20.2637C353.956 22.7996 351.9 24.8554 349.364 24.8554C346.828 24.8554 344.772 22.7996 344.772 20.2637C344.772 17.7277 346.828 15.6719 349.364 15.6719C351.9 15.6719 353.956 17.7277 353.956 20.2637Z" fill="#75FEFA" stroke="#75FEFA" stroke-width="4"/>
<circle cx="349.06" cy="46.5291" r="4.08474" fill="#75FEFA" stroke="#75FEFA" stroke-width="4"/>
<path d="M367.139 33.4473C367.139 35.9832 365.084 38.039 362.548 38.039C360.012 38.039 357.956 35.9832 357.956 33.4473C357.956 30.9113 360.012 28.8555 362.548 28.8555C365.084 28.8555 367.139 30.9113 367.139 33.4473Z" fill="#75FEFA" stroke="#75FEFA" stroke-width="4"/>
<circle cx="363.055" cy="46.5291" r="4.08474" fill="#75FEFA" stroke="#75FEFA" stroke-width="4"/>
<path d="M288.038 33.4473C288.038 35.9832 285.982 38.039 283.447 38.039C280.911 38.039 278.855 35.9832 278.855 33.4473C278.855 30.9113 280.911 28.8555 283.447 28.8555C285.982 28.8555 288.038 30.9113 288.038 33.4473Z" fill="#75FEFA" stroke="#75FEFA" stroke-width="4"/>
<circle cx="296.123" cy="46.5291" r="4.08474" fill="#75FEFA" stroke="#75FEFA" stroke-width="4"/>
<path d="M288.038 72.998C288.038 75.534 285.982 77.5898 283.447 77.5898C280.911 77.5898 278.855 75.534 278.855 72.998C278.855 70.4621 280.911 68.4063 283.447 68.4063C285.982 68.4063 288.038 70.4621 288.038 72.998Z" fill="#75FEFA" stroke="#75FEFA" stroke-width="4"/>
<circle cx="322.287" cy="86.6892" r="4.08474" fill="#75FEFA" stroke="#75FEFA" stroke-width="4"/>
<circle cx="335.673" cy="86.6892" r="4.08474" fill="#75FEFA" stroke="#75FEFA" stroke-width="4"/>
<path d="M353.956 86.1816C353.956 88.7176 351.9 90.7734 349.364 90.7734C346.828 90.7734 344.772 88.7176 344.772 86.1816C344.772 83.6457 346.828 81.5899 349.364 81.5899C351.9 81.5899 353.956 83.6457 353.956 86.1816ZM301.222 86.1816C301.222 88.7176 299.166 90.7734 296.63 90.7734C294.094 90.7734 292.038 88.7176 292.038 86.1816C292.038 83.6457 294.094 81.5898 296.63 81.5898C299.166 81.5898 301.222 83.6457 301.222 86.1816Z" fill="#75FEFA" stroke="#75FEFA" stroke-width="4"/>
<path d="M367.139 72.998C367.139 75.534 365.084 77.5898 362.548 77.5898C360.012 77.5898 357.956 75.534 357.956 72.998C357.956 70.4621 360.012 68.4063 362.548 68.4063C365.084 68.4063 367.139 70.4621 367.139 72.998Z" fill="#75FEFA" stroke="#75FEFA" stroke-width="4"/>
<circle cx="335.673" cy="46.5291" r="4.08474" fill="#75FEFA" stroke="#75FEFA" stroke-width="4"/>
<circle cx="322.287" cy="46.5291" r="4.08474" fill="#75FEFA" stroke="#75FEFA" stroke-width="4"/>
<circle cx="309.509" cy="46.5291" r="4.08474" fill="#75FEFA" stroke="#75FEFA" stroke-width="4"/>
<rect x="296.874" y="13.6719" width="52.246" height="13.1836" fill="#75FEFA"/>
<rect x="295.897" y="40.0391" width="67.3827" height="12.6953" fill="#75FEFA"/>
<rect x="369.139" y="33.752" width="12.778" height="12.1695" transform="rotate(90 369.139 33.752)" fill="#75FEFA"/>
<path d="M296.386 79.5898L349.12 79.5899L349.12 92.7734L296.386 92.7734L296.386 79.5898Z" fill="#75FEFA"/>
<rect x="289.538" y="33.7031" width="39.039" height="12.1836" transform="rotate(90 289.538 33.7031)" fill="#75FEFA" stroke="#75FEFA"/>
<path d="M355.957 72.9981C356.152 78.6621 351.643 79.7526 349.365 79.5899L355.957 86.1816C356.542 80.7129 360.595 79.5085 362.548 79.5899L355.957 72.9981Z" fill="#75FEFA"/>
<path d="M355.957 33.4473C356.152 39.1113 351.643 40.2018 349.365 40.0391L355.957 46.6309C356.542 41.1621 360.595 39.9577 362.548 40.0391L355.957 33.4473Z" fill="#75FEFA"/>
<path d="M290.039 20.2637C290.234 25.9277 285.725 27.0182 283.447 26.8555L290.039 33.4473C290.624 27.9785 294.677 26.7741 296.63 26.8555L290.039 20.2637Z" fill="#75FEFA"/>
<path d="M290.054 46.0098C290.249 51.6738 285.741 52.7643 283.462 52.6016L290.054 59.1934C290.64 53.7246 294.692 52.5202 296.645 52.6016L290.054 46.0098Z" fill="#75FEFA"/>
<path d="M296.63 79.5898C290.966 79.7851 289.876 75.2767 290.039 72.998L283.447 79.5898C288.916 80.1758 290.12 84.2285 290.039 86.1816L296.63 79.5898Z" fill="#75FEFA"/>
<path d="M362.548 26.8555C356.884 27.0508 355.794 22.5423 355.957 20.2637L349.365 26.8555C354.833 27.4414 356.038 31.4941 355.957 33.4472L362.548 26.8555Z" fill="#75FEFA"/>
<path d="M296.63 40.0391C290.966 40.2344 289.876 35.7259 290.039 33.4473L283.447 40.0391C288.916 40.625 290.12 44.6777 290.039 46.6308L296.63 40.0391Z" fill="#75FEFA"/>
</svg>
