<svg width="1440" height="915" viewBox="0 0 1440 915" fill="none" xmlns="http://www.w3.org/2000/svg">
<path fill-rule="evenodd" clip-rule="evenodd" d="M1440 0H0V915H1440V0ZM719.666 75C789.991 75 847 132.01 847 202.334C847 272.521 903.787 329.445 973.922 329.666H974.333C977.245 329.666 980.134 329.764 982.996 329.957C984.173 330.035 985.344 330.129 986.512 330.24C1051.12 324.109 1101.67 269.699 1101.67 203.482C1101.67 133.156 1158.68 76.1465 1229 76.1465C1299.32 76.1465 1356.33 133.156 1356.33 203.48C1356.33 273.805 1299.32 330.812 1229 330.816C1158.87 330.816 1101.98 387.516 1101.67 457.576C1101.98 527.498 1158.64 584.113 1228.59 584.334H1229C1299.32 584.334 1356.33 641.344 1356.33 711.668C1356.33 781.992 1299.32 839 1229 839C1158.68 839 1101.67 781.992 1101.67 711.668C1101.67 641.344 1044.66 584.336 974.333 584.336C904.01 584.336 847.001 641.344 847 711.666C847 781.992 789.991 839 719.666 839C649.342 839 592.333 781.992 592.333 711.668C592.332 641.344 535.323 584.336 465 584.332C394.745 584.336 337.78 641.23 337.667 711.459V711.666C337.667 781.992 280.658 839 210.333 839C140.009 839 83 781.992 83 711.668C83 641.344 140.009 584.334 210.333 584.334H210.598H210.746C280.88 584.111 337.667 527.188 337.667 457C337.666 386.676 280.657 329.668 210.333 329.668C140.009 329.666 83 272.658 83 202.334C83 132.01 140.009 75 210.333 75C280.658 75 337.667 132.01 337.667 202.334C337.667 272.521 394.454 329.445 464.589 329.666H465H465.411C535.477 329.445 592.221 272.635 592.333 202.543V202.334C592.333 132.01 649.342 75 719.666 75ZM720.099 584.332C719.955 584.332 719.811 584.332 719.666 584.332C715.319 584.332 711.022 584.115 706.787 583.689C710.888 584.102 715.047 584.32 719.253 584.334L719.666 584.332L720.08 584.334C720.086 584.334 720.093 584.332 720.099 584.332ZM723.609 329.605C724.586 329.576 725.56 329.535 726.531 329.484C725.131 329.559 723.725 329.611 722.314 329.641C721.569 329.656 720.823 329.664 720.076 329.666H719.958C721.179 329.664 722.396 329.643 723.609 329.605ZM718.219 329.658C718.564 329.662 718.911 329.666 719.257 329.666H719.374C718.99 329.666 718.602 329.662 718.219 329.658ZM718.219 329.658C717.059 329.646 715.904 329.617 714.752 329.574C715.007 329.584 715.258 329.594 715.513 329.602C716.414 329.631 717.313 329.648 718.219 329.658Z" fill="#C1F52F"/>
</svg>
