<svg width="236" height="93" viewBox="0 0 236 93" fill="none" xmlns="http://www.w3.org/2000/svg">
<path d="M234.507 20.0467V19.2967H234.415C234.046 16.4681 231.618 14.2738 228.691 14.2738C226.234 14.2738 223.439 12.5116 223.439 9.0219C223.439 5.84085 220.847 3.24902 217.666 3.24902H140.578C137.397 3.24902 134.805 5.84085 134.805 9.0219C134.805 11.6683 132.592 14.2738 129.553 14.2738C126.372 14.2738 123.78 16.8656 123.78 20.0467V75.128C123.78 78.3091 126.372 80.9009 129.553 80.9009C132.2 80.9009 134.805 83.1139 134.805 86.1528C134.805 89.3339 137.397 91.9257 140.578 91.9257H217.709C220.89 91.9257 223.482 89.3339 223.482 86.1528V86.1528V86.1527V86.1526V86.1526V86.1525V86.1525V86.1524V86.1523V86.1523V86.1522V86.1521V86.1521V86.152V86.1519V86.1519V86.1518V86.1517V86.1517V86.1516V86.1515V86.1515V86.1514V86.1513V86.1512V86.1511V86.1511V86.151V86.1509V86.1509V86.1508V86.1507V86.1507V86.1506V86.1505V86.1504V86.1504V86.1503V86.1502V86.1501V86.1501V86.15V86.1499V86.1498V86.1497V86.1496V86.1495V86.1495V86.1494V86.1493V86.1492V86.1491V86.149V86.1489V86.1488V86.1487V86.1486V86.1485V86.1484V86.1483V86.1482V86.1481V86.148V86.1479V86.1479V86.1478V86.1477V86.1476V86.1476V86.1475V86.1474V86.1474V86.1473V86.1473V86.1472V86.1471V86.1471V86.147V86.1469V86.1469V86.1468V86.1467V86.1467V86.1466V86.1465V86.1464V86.1464V86.1463V86.1462V86.1462V86.1461V86.146V86.1459V86.1459V86.1458V86.1457V86.1456V86.1456V86.1455V86.1454V86.1453V86.1453V86.1452V86.1451V86.145V86.1449V86.1449V86.1448V86.1447V86.1446V86.1445V86.1444V86.1444V86.1443V86.1442V86.1441V86.144V86.1439V86.1438V86.1437V86.1437V86.1436V86.1435V86.1434V86.1433V86.1432V86.1431V86.143V86.1429V86.1428V86.1427V86.1426V86.1425V86.1424V86.1423V86.1422V86.1421V86.142V86.1419V86.1418V86.1417V86.1416V86.1415V86.1414V86.1413V86.1412V86.1411V86.141V86.1409V86.1408V86.1407V86.1406V86.1405V86.1404V86.1403V86.1401V86.14V86.1399V86.1398V86.1397V86.1396V86.1395V86.1394V86.1392V86.1391V86.139V86.1389V86.1388V86.1386V86.1385V86.1384V86.1383V86.1382V86.138V86.1379V86.1378V86.1377V86.1375V86.1374V86.1373V86.1372V86.137V86.1369V86.1368V86.1366V86.1365V86.1364V86.1362V86.1361V86.136V86.1358V86.1357V86.1356V86.1354V86.1353V86.1352V86.135V86.1349V86.1347V86.1346V86.1344V86.1343V86.1342V86.134V86.1339V86.1337V86.1336V86.1334V86.1333V86.1331V86.133V86.1328V86.1327V86.1325V86.1324V86.1322V86.1321V86.1319V86.1318V86.1316V86.1314V86.1313V86.1311V86.131V86.1308V86.1307V86.1305V86.1303V86.1302V86.13V86.1298V86.1297V86.1295V86.1293V86.1292V86.129V86.1288V86.1287V86.1285V86.1283V86.1281V86.128V86.1278V86.1276V86.1274V86.1273V86.1271V86.1269V86.1267V86.1265V86.1264V86.1262V86.126V86.1258V86.1256V86.1254V86.1253V86.1251V86.1249V86.1247V86.1245V86.1243V86.1241V86.1239V86.1237V86.1235V86.1234V86.1232V86.123V86.1228V86.1226V86.1224V86.1222V86.122V86.1218V86.1216V86.1214V86.1211V86.1209V86.1207V86.1205V86.1203V86.1201V86.1199V86.1197V86.1195V86.1193V86.1191V86.1188V86.1186V86.1184V86.1182V86.118V86.1178V86.1175V86.1173V86.1171V86.1169V86.1166V86.1164V86.1162V86.116V86.1157V86.1155V86.1153V86.1151V86.1148V86.1146V86.1144V86.1141V86.1139V86.1137V86.1134V86.1132V86.1129V86.1127V86.1125V86.1122V86.112V86.1117V86.1115V86.1113V86.111V86.1108V86.1105V86.1103C223.482 83.653 225.244 80.8584 228.734 80.8584H230.734C232.809 80.8584 234.507 79.1604 234.507 77.0861V73.1274V73.1269V73.1264V73.1259V73.1254V73.1249V73.1244V73.1239V73.1234V73.1229V73.1224V73.1219V73.1214V73.1209V73.1204V73.1199V73.1194V73.1189V73.1184V73.1179V73.1174V73.1169V73.1164V73.1159V73.1154V73.1149V73.1144V73.1139V73.1134V73.1129V73.1124V73.1119V73.1114V73.1109V73.1105V73.1099V73.1095V73.1089V73.1085V73.108V73.1075V73.107V73.1065V73.106V73.1055V73.105V73.1045V73.104V73.1035V73.103V73.1025V73.102V73.1015V73.101V73.1005V73.1V73.0995V73.099V73.0985V73.098V73.0975V73.097V73.0965V73.096V73.0955V73.095V73.0945V73.094V73.0935V73.093V73.0925V73.092V73.0915V73.091V73.0905V73.09V73.0895V73.089V73.0885V73.088V73.0875V73.087V73.0865V73.086V73.0855V73.085V73.0845V73.084V73.0835V73.083V73.0825V73.082V73.0815V73.081V73.0805V73.08V73.0795V73.079V73.0785V73.078V73.0775V73.077V73.0765V73.076V73.0755V73.075V73.0745V73.074V73.0735V73.073V73.0725V73.072V73.0715V73.071V73.0705V73.07V73.0695V73.069V73.0685V73.068V73.0676V73.067V73.0666V73.066V73.0656V73.0651V73.0646V73.0641V73.0636V73.0631V73.0626V73.0621V73.0616V73.0611V73.0606V73.0601V73.0596V73.0591V73.0586V73.0581V73.0576V73.0571V73.0566V73.0561V73.0556V73.0551V73.0546V73.0541V73.0536V73.0531V73.0526V73.0521V73.0516V73.0511V73.0506V73.0501V73.0496V73.0491V73.0486V73.0481V73.0476V73.0471V73.0466V73.0461V73.0456V73.0451V73.0446V73.0441V73.0436V73.0431V73.0426V73.0421V73.0416V73.0411V73.0406V73.0401V73.0396V73.0391V73.0386V73.0381V73.0376V73.0371V73.0366V73.0361V73.0356V73.0351V73.0346V73.0341V73.0336V73.0331V73.0326V73.0321V73.0316V73.0311V73.0306V73.0301V73.0296V73.0291V73.0286V73.0281V73.0276V73.0271V73.0266V73.0261V73.0256V73.0251V73.0247V73.0241V73.0237V73.0231V73.0227V73.0222V73.0217V73.0212V73.0207V73.0202V73.0197V73.0192V73.0187V73.0182V73.0177V73.0172V73.0167V73.0162V73.0157V73.0152V73.0147V73.0142V73.0137V73.0132V73.0127V73.0122V73.0117V73.0112V73.0107V73.0102V73.0097V73.0092V73.0087V73.0082V73.0077V73.0072V73.0067V73.0062V73.0057V73.0052V73.0047V73.0042V73.0037V73.0032V73.0027V73.0022V73.0017V73.0012V73.0007V73.0002V72.9997V72.9992V72.9987V72.9982V72.9977V72.9972V72.9967V72.9962V72.9957V72.9952V72.9947V72.9942V72.9937V72.9932V72.9927V72.9922V72.9917V72.9912V72.9907V72.9902V72.9897V72.9892V72.9887V72.9882V72.9877V72.9872V72.9867V72.9862V72.9857V72.9852V72.9847V72.9842V72.9837V72.9832V72.9827V72.9822V72.9818V72.9812V72.9808V72.9802V72.9798V72.9793V72.9788V72.9783V72.9778V72.9773V72.9768V72.9763V72.9758V72.9753V72.9748V72.9743V72.9738V72.9733V72.9728V72.9723V72.9718V72.9713V72.9708V72.9703V72.9698V72.9693V72.9688V72.9683V72.9678V72.9673V72.9668V72.9663V72.9658V72.9653V72.9648V72.9643V72.9638V72.9633V72.9628V72.9623V72.9618V72.9613V72.9608V72.9603V72.9598V72.9593V72.9588V72.9583V72.9578V72.9573V72.9568V72.9563V72.9558V72.9553V72.9548V72.9543V72.9538V72.9533V72.9528V72.9523V72.9518V72.9513V72.9508V72.9503V72.9498V72.9493V72.9488V72.9483V72.9478V72.9473V72.9468V72.9463V72.9458V72.9453V72.9448V72.9443V72.9438V72.9433V72.9428V72.9423V72.9418V72.9413V72.9408V72.9403V72.9398V72.9393V72.9389V72.9383V72.9379V72.9374V72.9369V72.9364V72.9359V72.9354V72.9349V72.9344V72.9339V72.9334V72.9329V72.9324V72.9319V72.9314V72.9309V72.9304V72.9299V72.9294V72.9289V72.9284V72.9279V72.9274V72.9269V72.9264V72.9259V72.9254V72.9249V72.9244V72.9239V72.9234V72.9229V72.9224V72.9219V72.9214V72.9209V72.9204V72.9199V72.9194V72.9189V72.9184V72.9179V72.9174V72.9169V72.9164V72.9159V72.9154V72.9149V72.9144V72.9139V72.9134V72.9129V72.9124V72.9119V72.9114V72.9109V72.9104V72.9099V72.9094V72.9089V72.9084V72.9079V72.9074V72.9069V72.9064V72.9059V72.9054V72.9049V72.9044V72.9039V72.9034V72.9029V72.9024V72.9019V72.9014V72.9009V72.9004V72.8999V72.8994V72.8989V72.8984V72.8979V72.8974V72.8969V72.8964V72.896V72.8954V72.895V72.8945V72.894V72.8935V72.893V72.8925V72.892V72.8915V72.891V72.8905V72.89V72.8895V72.889V72.8885V72.888V72.8875V72.887V72.8865V72.886V72.8855V72.885V72.8845V72.884V72.8835V72.883V72.8825V72.882V72.8815V72.881V72.8805V72.88V72.8795V72.879V72.8785V72.878V72.8775V72.877V72.8765V72.876V72.8755V72.875V72.8745V72.874V72.8735V72.873V72.8725V72.872V20.0467ZM140.578 80.3374H139.91C137.642 80.0497 135.326 78.3045 135.326 75.128V20.0467V20.0467V20.0467V20.0466V20.0466V20.0466V20.0466V20.0466V20.0466V20.0465V20.0465V20.0465V20.0465V20.0465V20.0465V20.0464V20.0464V20.0464V20.0464V20.0464V20.0463V20.0463V20.0463V20.0463V20.0463V20.0462V20.0462V20.0462V20.0462V20.0461V20.0461V20.0461V20.0461V20.046V20.046V20.046V20.046V20.046V20.046V20.0459V20.0459V20.0459V20.0459V20.0459V20.0459V20.0458V20.0458V20.0458V20.0458V20.0458V20.0457V20.0457V20.0457V20.0457V20.0457V20.0456V20.0456V20.0456V20.0456V20.0455V20.0455V20.0455V20.0455V20.0455V20.0454V20.0454V20.0454V20.0454V20.0453V20.0453V20.0453V20.0453V20.0452V20.0452V20.0452V20.0452V20.0451V20.0451V20.0451V20.045V20.045V20.045V20.045V20.0449V20.0449V20.0449V20.0448V20.0448V20.0448V20.0447V20.0447V20.0447V20.0446V20.0446V20.0446V20.0445V20.0445V20.0445V20.0444V20.0444V20.0444V20.0443V20.0443V20.0443V20.0442V20.0442V20.0441V20.0441V20.0441V20.044V20.044V20.044V20.0439V20.0439V20.0438V20.0438V20.0437V20.0437V20.0437V20.0436V20.0436V20.0435V20.0435V20.0434V20.0434V20.0434V20.0433V20.0433V20.0432V20.0432V20.0431V20.0431V20.043V20.043V20.0429V20.0429V20.0428V20.0428V20.0427V20.0427V20.0426V20.0426V20.0425V20.0425V20.0424V20.0424V20.0423V20.0422V20.0422V20.0421V20.0421V20.042V20.042V20.0419V20.0418V20.0418V20.0417V20.0417V20.0416V20.0415V20.0415V20.0414V20.0414V20.0413V20.0412V20.0412V20.0411V20.041V20.041V20.0409V20.0408V20.0408V20.0407V20.0406V20.0406V20.0405V20.0404V20.0404V20.0403V20.0402V20.0402V20.0401V20.04V20.0399V20.0399V20.0398V20.0397V20.0396V20.0396V20.0395V20.0394V20.0393V20.0393V20.0392V20.0391V20.039V20.0389V20.0389V20.0388V20.0387V20.0386V20.0385V20.0385V20.0384V20.0383V20.0382V20.0381V20.038V20.038V20.0379V20.0378V20.0377V20.0376V20.0375V20.0374V20.0373V20.0372V20.0371V20.0371V20.037V20.0369V20.0368V20.0367V20.0366V20.0365V20.0364V20.0363V20.0362V20.0361V20.036V20.0359V20.0358V20.0357V20.0356V20.0355V20.0354V20.0353V20.0352V20.0351V20.035V20.0349V20.0348V20.0347V20.0345V20.0344V20.0343V20.0342V20.0341V20.034V20.0339V20.0338V20.0337V20.0335V20.0334V20.0333V20.0332V20.0331V20.033V20.0329V20.0327V20.0326V20.0325V20.0324V20.0323V20.0321V20.032V20.0319V20.0318V20.0316V20.0315V20.0314V20.0313V20.0311V20.031V20.0309V20.0308V20.0306V20.0305V20.0304V20.0302V20.0301V20.03V20.0298V20.0297V20.0296V20.0294V20.0293V20.0291V20.029V20.0289V20.0287V20.0286V20.0284V20.0283V20.0282V20.028V20.0279V20.0277V20.0276V20.0274V20.0273V20.0271V20.027V20.0268V20.0267V20.0265V20.0264V20.0262V20.0261V20.0259V20.0258V20.0256V20.0255V20.0253V20.0251V20.025V20.0248V20.0247V20.0245V20.0243V20.0242V20.024V20.0239V20.0237V20.0235V20.0234V20.0232V20.023V20.0229V20.0227V20.0225V20.0223V20.0222V20.022V20.0218V20.0216V20.0215V20.0213V20.0211V20.0209V20.0208V20.0206V20.0204V20.0202V20.02V20.0199V20.0197V20.0195V20.0193V20.0191V20.0189V20.0187V20.0185V20.0184V20.0182V20.018V20.0178V20.0176V20.0174V20.0172V20.017V20.0168V20.0166V20.0164V20.0162V20.016V20.0158V20.0156V20.0154V20.0152V20.015V20.0148V20.0146V20.0144V20.0142V20.014V20.0138V20.0135V20.0133V20.0131V20.0129V20.0127V20.0125V20.0123V20.012V20.0118V20.0116V20.0114V20.0112V20.011V20.0107V20.0105V20.0103V20.0101V20.0098V20.0096V20.0094V20.0091V20.0089V20.0087V20.0085V20.0082V20.008V20.0078V20.0075V20.0073V20.007V20.0068V20.0066V20.0063V20.0061V20.0058V20.0056V20.0054V20.0051V20.0049V20.0046V20.0044V20.0041C135.326 17.5469 137.088 14.7522 140.578 14.7522H217.709C220.323 14.7522 222.961 16.9327 222.961 19.9616V20.0041V75.0855V75.128C222.961 77.7284 220.751 80.3374 217.709 80.3374H140.578Z" fill="#9896AE" stroke="#9896AE" stroke-width="1.5"/>
<path d="M7.08333 12.5136V12.5135L7.07161 12.5137C3.88348 12.5636 1.25 15.2003 1.25 18.4388V74.7134C1.25 77.9537 3.88782 80.5951 7.12678 80.5951C9.60268 80.5951 12.4628 82.3629 12.5028 85.8941V85.8942V85.8945V85.8947V85.8949V85.8952V85.8954V85.8957V85.8959V85.8961V85.8963V85.8966V85.8968V85.897V85.8973V85.8975V85.8977V85.8979V85.8982V85.8984V85.8986V85.8988V85.899V85.8993V85.8995V85.8997V85.8999V85.9001V85.9003V85.9006V85.9008V85.901V85.9012V85.9014V85.9016V85.9018V85.902V85.9022V85.9025V85.9027V85.9029V85.9031V85.9033V85.9035V85.9037V85.9039V85.9041V85.9043V85.9045V85.9047V85.9049V85.9051V85.9053V85.9055V85.9057V85.9059V85.9061V85.9062V85.9064V85.9066V85.9068V85.907V85.9072V85.9074V85.9076V85.9078V85.908V85.9081V85.9083V85.9085V85.9087V85.9089V85.9091V85.9092V85.9094V85.9096V85.9098V85.91V85.9101V85.9103V85.9105V85.9107V85.9108V85.911V85.9112V85.9114V85.9115V85.9117V85.9119V85.9121V85.9122V85.9124V85.9126V85.9127V85.9129V85.9131V85.9133V85.9134V85.9136V85.9137V85.9139V85.9141V85.9142V85.9144V85.9146V85.9147V85.9149V85.9151V85.9152V85.9154V85.9155V85.9157V85.9159V85.916V85.9162V85.9163V85.9165V85.9167V85.9168V85.917V85.9171V85.9173V85.9174V85.9176V85.9177V85.9179V85.918V85.9182V85.9184V85.9185V85.9187V85.9188V85.919V85.9191V85.9193V85.9194V85.9196V85.9197V85.9198V85.92V85.9201V85.9203V85.9204V85.9206V85.9207V85.9209V85.921V85.9212V85.9213V85.9214V85.9216V85.9217V85.9219V85.922V85.9222V85.9223V85.9224V85.9226V85.9227V85.9229V85.923V85.9231V85.9233V85.9234V85.9236V85.9237V85.9238V85.924V85.9241V85.9243V85.9244V85.9245V85.9247V85.9248V85.9249V85.9251V85.9252V85.9253V85.9255V85.9256V85.9258V85.9259V85.926V85.9261V85.9263V85.9264V85.9266V85.9267V85.9268V85.9269V85.9271V85.9272V85.9273V85.9275V85.9276V85.9277V85.9279V85.928V85.9281V85.9283V85.9284V85.9285V85.9287V85.9288V85.9289V85.929V85.9292V85.9293V85.9294V85.9296V85.9297V85.9298V85.9299V85.9301V85.9302V85.9303V85.9305V85.9306V85.9307V85.9308V85.931V85.9311V85.9312V85.9314V85.9315V85.9316V85.9317V85.9319V85.932V85.9321V85.9323V85.9324V85.9325V85.9326V85.9328V85.9329V85.933V85.9332V85.9333V85.9334V85.9335V85.9337V85.9338V85.9339V85.934V85.9342V85.9343V85.9344V85.9346V85.9347V85.9348V85.9349V85.9351V85.9352V85.9353V85.9354V85.9356V85.9357V85.9358V85.936V85.9361V85.9362V85.9363V85.9365V85.9366V85.9367V85.9369V85.937V85.9371V85.9372V85.9374V85.9375V85.9376V85.9378V85.9379V85.938V85.9381V85.9383V85.9384V85.9385V85.9387V85.9388V85.9389V85.9391V85.9392V85.9393V85.9395V85.9396V85.9397V85.9398V85.94V85.9401V85.9402V85.9404V85.9405V85.9407V85.9408V85.9409V85.941V85.9412V85.9413V85.9415V85.9416V85.9417V85.9419V85.942V85.9421V85.9423V85.9424V85.9425V85.9427V85.9428V85.9429V85.9431V85.9432V85.9434V85.9435V85.9436V85.9438V85.9439V85.9441V85.9442V85.9443V85.9445V85.9446V85.9448V85.9449V85.945V85.9452V85.9453V85.9455V85.9456V85.9458V85.9459V85.946V85.9462V85.9463V85.9465V85.9466V85.9468V85.9469V85.9471V85.9472V85.9474V85.9475V85.9477V85.9478V85.948V85.9481V85.9483V85.9484V85.9486V85.9487V85.9489V85.949V85.9492V85.9493V85.9495V85.9496V85.9498V85.9499V85.9501V85.9502V85.9504V85.9506V85.9507V85.9509V85.951V85.9512V85.9514V85.9515V85.9517V85.9518V85.952V85.9522V85.9523V85.9525V85.9527V85.9528V85.953V85.9531V85.9533V85.9535V85.9536V85.9538V85.954V85.9541V85.9543V85.9545V85.9547V85.9548V85.955V85.9552V85.9553V85.9555V85.9557V85.9559V85.956V85.9562V85.9564V85.9566V85.9567V85.9569V85.9571V85.9573V85.9575V85.9576V85.9578V85.958V85.9582V85.9584V85.9586V85.9587V85.9589V85.9591V85.9593V85.9595V85.9597V85.9599V85.9601V85.9602V85.9604V85.9606V85.9608V85.961V85.9612V85.9614V85.9616V85.9618V85.962V85.9622V85.9624V85.9626V85.9628V85.963V85.9632V85.9634V85.9636V85.9638V85.964V85.9642V85.9644V85.9646V85.9648V85.965V85.9652V85.9654V85.9657V85.9659V85.9661V85.9663V85.9665V85.9667V85.9669V85.9671V85.9674V85.9676V85.9678V85.968V85.9682V85.9685V85.9687V85.9689V85.9691V85.9694V85.9696V85.9698V85.97V85.9703V85.9705V85.9707V85.9709V85.9712V85.9714V85.9716V85.9719V85.9721V85.9724V85.9726V85.9728V85.9731V85.9733V85.9735V85.9738V85.974V85.9743V85.9745V85.9748V85.975V85.9753V85.9755V85.9758V85.976V85.9763V85.9765V85.9768V85.977C12.5028 89.2173 15.1407 91.8587 18.3796 91.8587H97.1061C100.345 91.8587 102.983 89.2173 102.983 85.977C102.983 83.4591 104.787 80.5951 108.359 80.5951C111.598 80.5951 114.236 77.9537 114.236 74.7134C114.236 71.4731 111.598 68.8317 108.359 68.8317C105.12 68.8317 102.482 71.4731 102.482 74.7134V74.7513C102.441 77.4331 100.209 80.0953 97.1061 80.0953H18.3796C15.6714 80.0953 13.0036 77.8286 13.0036 74.7134V18.4388V18.4388V18.4388V18.4387V18.4387V18.4387V18.4387V18.4387V18.4387V18.4386V18.4386V18.4386V18.4386V18.4386V18.4386V18.4385V18.4385V18.4385V18.4385V18.4385V18.4384V18.4384V18.4384V18.4384V18.4384V18.4383V18.4383V18.4383V18.4383V18.4382V18.4382V18.4382V18.4382V18.4381V18.4381V18.4381V18.4381V18.4381V18.4381V18.438V18.438V18.438V18.438V18.438V18.438V18.4379V18.4379V18.4379V18.4379V18.4379V18.4378V18.4378V18.4378V18.4378V18.4378V18.4377V18.4377V18.4377V18.4377V18.4377V18.4376V18.4376V18.4376V18.4376V18.4375V18.4375V18.4375V18.4375V18.4374V18.4374V18.4374V18.4374V18.4373V18.4373V18.4373V18.4373V18.4372V18.4372V18.4372V18.4371V18.4371V18.4371V18.4371V18.437V18.437V18.437V18.4369V18.4369V18.4369V18.4368V18.4368V18.4368V18.4367V18.4367V18.4367V18.4366V18.4366V18.4366V18.4365V18.4365V18.4365V18.4364V18.4364V18.4364V18.4363V18.4363V18.4362V18.4362V18.4362V18.4361V18.4361V18.436V18.436V18.436V18.4359V18.4359V18.4358V18.4358V18.4358V18.4357V18.4357V18.4356V18.4356V18.4355V18.4355V18.4354V18.4354V18.4353V18.4353V18.4352V18.4352V18.4352V18.4351V18.4351V18.435V18.435V18.4349V18.4349V18.4348V18.4347V18.4347V18.4346V18.4346V18.4345V18.4345V18.4344V18.4344V18.4343V18.4343V18.4342V18.4341V18.4341V18.434V18.434V18.4339V18.4339V18.4338V18.4337V18.4337V18.4336V18.4335V18.4335V18.4334V18.4334V18.4333V18.4332V18.4332V18.4331V18.433V18.433V18.4329V18.4328V18.4328V18.4327V18.4326V18.4326V18.4325V18.4324V18.4323V18.4323V18.4322V18.4321V18.4321V18.432V18.4319V18.4318V18.4318V18.4317V18.4316V18.4315V18.4314V18.4314V18.4313V18.4312V18.4311V18.4311V18.431V18.4309V18.4308V18.4307V18.4306V18.4306V18.4305V18.4304V18.4303V18.4302V18.4301V18.43V18.43V18.4299V18.4298V18.4297V18.4296V18.4295V18.4294V18.4293V18.4292V18.4291V18.429V18.429V18.4289V18.4288V18.4287V18.4286V18.4285V18.4284V18.4283V18.4282V18.4281V18.428V18.4279V18.4278V18.4277V18.4276V18.4275V18.4274V18.4273V18.4271V18.427V18.4269V18.4268V18.4267V18.4266V18.4265V18.4264V18.4263V18.4262V18.4261V18.4259V18.4258V18.4257V18.4256V18.4255V18.4254V18.4253V18.4251V18.425V18.4249V18.4248V18.4247V18.4245V18.4244V18.4243V18.4242V18.4241V18.4239V18.4238V18.4237V18.4235V18.4234V18.4233V18.4232V18.423V18.4229V18.4228V18.4226V18.4225V18.4224V18.4222V18.4221V18.422V18.4218V18.4217V18.4216V18.4214V18.4213V18.4212V18.421V18.4209V18.4207V18.4206V18.4204V18.4203V18.4202V18.42V18.4199V18.4197V18.4196V18.4194V18.4193V18.4191V18.419V18.4188V18.4187V18.4185V18.4184V18.4182V18.4181V18.4179V18.4177V18.4176V18.4174V18.4173V18.4171V18.4169V18.4168V18.4166V18.4165V18.4163V18.4161V18.416V18.4158V18.4156V18.4155V18.4153V18.4151V18.415V18.4148V18.4146V18.4144V18.4143V18.4141V18.4139V18.4137V18.4136V18.4134V18.4132V18.413V18.4129V18.4127V18.4125V18.4123V18.4121V18.4119V18.4118V18.4116V18.4114V18.4112V18.411V18.4108V18.4106V18.4104V18.4102V18.41V18.4099V18.4097V18.4095V18.4093V18.4091V18.4089V18.4087V18.4085V18.4083V18.4081V18.4079V18.4077V18.4075V18.4073V18.407V18.4068V18.4066V18.4064V18.4062V18.406V18.4058V18.4056V18.4054V18.4052V18.4049V18.4047V18.4045V18.4043V18.4041V18.4038V18.4036V18.4034V18.4032V18.403V18.4027V18.4025V18.4023V18.4021V18.4018V18.4016V18.4014V18.4011V18.4009V18.4007V18.4004V18.4002V18.4V18.3997V18.3995V18.3993V18.399V18.3988V18.3985V18.3983V18.398V18.3978V18.3976V18.3973V18.3971V18.3968V18.3966V18.3963V18.3961V18.3958V18.3956V18.3953C13.0036 15.8774 14.8078 13.0134 18.3796 13.0134H97.1061C99.6188 13.0134 102.48 14.8167 102.482 18.3905C102.436 21.6863 105.085 24.277 108.316 24.277C111.554 24.277 114.192 21.6356 114.192 18.3953C114.192 15.155 111.554 12.5136 108.316 12.5136C105.607 12.5136 102.939 10.2469 102.939 7.13169C102.939 3.89137 100.302 1.25 97.0627 1.25H18.3362C15.0972 1.25 12.4594 3.89137 12.4594 7.13169C12.4594 9.84422 10.1938 12.5136 7.08333 12.5136Z" fill="#9896AE" stroke="#9896AE" stroke-width="1.5"/>
</svg>
