<svg width="56" height="56" viewBox="0 0 56 56" fill="none" xmlns="http://www.w3.org/2000/svg">
<path d="M55.2352 28.11C55.2352 31.9162 55.1586 35.7334 55.257 39.5397C55.4211 46.2772 51.1883 51.4834 45.7961 53.8022C43.6305 54.7319 41.3555 55.2241 39.0039 55.2241C31.643 55.235 24.2711 55.3334 16.9102 55.1912C11.3648 55.0819 6.80391 52.7631 3.53359 48.1912C1.81641 45.785 0.996094 43.0506 0.996094 40.0866C0.996094 32.2444 0.996094 24.4131 0.996094 16.5709C0.996094 10.1725 4.11328 5.69905 9.64766 2.78968C12.0539 1.53186 14.668 0.995926 17.3914 0.984989C24.5336 0.984989 31.6867 0.941239 38.8289 1.00686C44.3742 1.05061 49.0008 3.17249 52.4133 7.63499C54.3164 10.1287 55.2352 12.9944 55.2352 16.1444C55.2352 20.1256 55.2352 24.1178 55.2352 28.11ZM5.03203 28.11C5.03203 32.1241 5.03203 36.1272 5.03203 40.1412C5.03203 41.935 5.44766 43.6194 6.37734 45.1397C8.81641 49.1319 12.5023 51.0787 17.0742 51.1553C24.4133 51.2647 31.7633 51.1991 39.1133 51.1772C40.918 51.1772 42.668 50.8053 44.2977 50.0287C48.7383 47.9069 51.2211 44.5272 51.1992 39.4522C51.1555 31.6866 51.1883 23.9209 51.1883 16.1553C51.1883 13.9569 50.5648 11.9444 49.2633 10.1725C46.7477 6.77093 43.2695 5.09749 39.1133 5.05374C31.7852 4.96624 24.457 5.02093 17.1289 5.03186C15.5648 5.03186 14.0555 5.34905 12.5898 5.89593C8.56484 7.39436 4.82422 11.1897 4.99922 16.7787C5.13047 20.5631 5.03203 24.3366 5.03203 28.11Z" fill="#9896AE"/>
<path d="M28.175 39.7031C21.1203 39.7031 15.4328 34.0813 15.4219 27.0813C15.411 20.1906 21.1422 14.5469 28.1531 14.5469C35.186 14.536 40.8953 20.1688 40.9063 27.1141C40.9063 34.0485 35.2078 39.6922 28.175 39.7031ZM28.175 35.6563C32.9766 35.6563 36.8703 31.8172 36.8594 27.0922C36.8485 22.411 32.9547 18.5828 28.175 18.5828C23.3735 18.5828 19.4578 22.4 19.4578 27.1141C19.4688 31.8391 23.3735 35.6672 28.175 35.6563Z" fill="#9896AE"/>
<path d="M42.3829 10.7188C43.8595 10.7188 45.0626 11.9766 45.0626 13.5188C45.0517 15.0609 43.8376 16.3078 42.3611 16.2969C40.9064 16.2859 39.7142 15.0391 39.7142 13.5297C39.7032 11.9875 40.9064 10.7188 42.3829 10.7188Z" fill="#9896AE"/>
</svg>
