<svg width="43" height="43" viewBox="0 0 43 43" fill="none" xmlns="http://www.w3.org/2000/svg">
<path fill-rule="evenodd" clip-rule="evenodd" d="M7.16667 28.6667C10.9404 28.6667 14.0329 25.7499 14.3127 22.0479C14.0351 25.7256 10.9818 28.6284 7.24219 28.6671C11.1654 28.7076 14.3333 31.9005 14.3333 35.8333C14.3333 34.0867 14.9581 32.486 15.9964 31.2426C14.9581 32.486 14.3333 34.0867 14.3333 35.8333C14.3333 39.7914 17.542 43 21.5 43C25.458 43 28.6667 39.7914 28.6667 35.8333C28.6667 31.8753 25.458 28.6667 21.5 28.6667C21.5 28.6667 21.5 28.6667 21.5 28.6667C17.5473 28.6667 14.342 25.4667 14.3333 21.5161L14.3333 21.5C14.3333 17.542 17.542 14.3333 21.5 14.3333C25.458 14.3333 28.6667 17.542 28.6667 21.5C28.6667 25.458 31.8753 28.6667 35.8333 28.6667C39.7914 28.6667 43 25.458 43 21.5C43 17.542 39.7914 14.3333 35.8333 14.3333C31.8753 14.3333 28.6667 11.1247 28.6667 7.16667C28.6667 3.20862 25.458 -1.11281e-06 21.5 -9.39795e-07C17.542 -7.66783e-07 14.3333 3.20863 14.3333 7.16667C14.3333 11.1247 11.1247 14.3333 7.16667 14.3333C3.20863 14.3333 -8.28029e-07 17.542 -9.39795e-07 21.5C-1.05156e-06 25.458 3.20862 28.6667 7.16667 28.6667Z" fill="#04005E"/>
</svg>
