<svg width="1651" height="368" viewBox="0 0 1651 368" fill="none" xmlns="http://www.w3.org/2000/svg">
<circle cx="550.25" cy="110.25" r="110.25" fill="#9896AE"/>
<circle cx="990.25" cy="110.25" r="110.25" fill="#9896AE"/>
<circle cx="1430.25" cy="110.25" r="110.25" fill="#9896AE"/>
<path fill-rule="evenodd" clip-rule="evenodd" d="M770.5 220.25C709.611 220.25 660.25 269.61 660.25 330.5C660.25 269.61 610.889 220.25 550 220.25C610.889 220.25 660.25 170.889 660.25 110C660.25 170.889 709.611 220.25 770.5 220.25Z" fill="#9896AE"/>
<path fill-rule="evenodd" clip-rule="evenodd" d="M550.5 220.25C489.611 220.25 440.25 269.61 440.25 330.5C440.25 269.61 390.889 220.25 330 220.25C390.889 220.25 440.25 170.889 440.25 110C440.25 170.889 489.611 220.25 550.5 220.25Z" fill="#9896AE"/>
<path fill-rule="evenodd" clip-rule="evenodd" d="M330.5 220.25C269.611 220.25 220.25 269.61 220.25 330.5C220.25 269.61 170.889 220.25 110 220.25C170.889 220.25 220.25 170.889 220.25 110C220.25 170.889 269.611 220.25 330.5 220.25Z" fill="#9896AE"/>
<path fill-rule="evenodd" clip-rule="evenodd" d="M1210.5 220.25C1149.61 220.25 1100.25 269.61 1100.25 330.5C1100.25 269.61 1050.89 220.25 990 220.25C1050.89 220.25 1100.25 170.889 1100.25 110C1100.25 170.889 1149.61 220.25 1210.5 220.25Z" fill="#9896AE"/>
<path fill-rule="evenodd" clip-rule="evenodd" d="M990.5 220.25C929.611 220.25 880.25 269.61 880.25 330.5C880.25 269.61 830.889 220.25 770 220.25C830.889 220.25 880.25 170.889 880.25 110C880.25 170.889 929.611 220.25 990.5 220.25Z" fill="#9896AE"/>
<path fill-rule="evenodd" clip-rule="evenodd" d="M1430.5 220.25C1369.61 220.25 1320.25 269.61 1320.25 330.5C1320.25 269.61 1270.89 220.25 1210 220.25C1270.89 220.25 1320.25 170.889 1320.25 110C1320.25 170.889 1369.61 220.25 1430.5 220.25Z" fill="#9896AE"/>
<path fill-rule="evenodd" clip-rule="evenodd" d="M1650.5 220.25C1589.61 220.25 1540.25 269.61 1540.25 330.5C1540.25 269.61 1490.89 220.25 1430 220.25C1490.89 220.25 1540.25 170.889 1540.25 110C1540.25 170.889 1589.61 220.25 1650.5 220.25Z" fill="#9896AE"/>
<circle cx="110.25" cy="111.25" r="110.25" fill="#9896AE"/>
<rect y="220" width="1650" height="148" fill="#9896AE"/>
<path d="M220 325L0 110V325H220Z" fill="#9896AE"/>
</svg>
