<svg width="222" height="222" viewBox="0 0 222 222" fill="none" xmlns="http://www.w3.org/2000/svg">
<path fill-rule="evenodd" clip-rule="evenodd" d="M185 74C165.517 74 149.551 89.0585 148.106 108.172C149.54 89.1843 165.303 74.1974 184.61 73.998C164.355 73.7887 148 57.3043 148 37C148 46.0174 144.774 54.2813 139.414 60.7008C144.774 54.2813 148 46.0174 148 37C148 16.5655 131.435 -1.01825e-06 111 -4.85196e-06C90.5655 -5.74519e-06 74 16.5655 74 37C74 57.4345 90.5655 74 111 74C111 74 111 74 111 74C131.407 74 147.955 90.5205 148 110.917L148 111C148 131.435 131.435 148 111 148C90.5655 148 74 131.435 74 111C74 90.5654 57.4345 74 37 74C16.5654 74 -1.92175e-05 90.5654 -2.01108e-05 111C-2.1004e-05 131.434 16.5654 148 37 148C57.4345 148 74 164.565 74 185C74 205.435 90.5655 222 111 222C131.435 222 148 205.435 148 185C148 164.565 164.565 148 185 148C205.435 148 222 131.435 222 111C222 90.5655 205.435 74 185 74Z" fill="#04005E"/>
</svg>
