<svg width="222" height="222" viewBox="0 0 222 222" fill="none" xmlns="http://www.w3.org/2000/svg">
<path fill-rule="evenodd" clip-rule="evenodd" d="M36.9997 74C16.5653 74 -8.93215e-07 57.4345 0 37C1.30505e-06 16.5655 16.5653 0 36.9997 0C57.4341 0 73.9994 16.5655 73.9994 37C73.9994 50.8292 66.4125 62.8864 55.1739 69.2363C66.413 62.8866 74.0003 50.8291 74.0003 36.9996C74.0003 57.4341 90.5656 73.9996 111 73.9996C102.983 73.9996 95.5619 76.5494 89.5027 80.8821C95.5617 76.5498 102.983 74.0004 110.999 74.0004C131.434 74.0004 147.999 90.5659 147.999 111C147.999 128.924 135.254 143.871 118.333 147.274C135.255 143.872 148 128.925 148 111C148 131.393 164.497 147.933 184.874 148C184.916 148 184.958 148 185 148C205.435 148 222 164.565 222 185C222 205.435 205.435 222 185 222C164.566 222 148.001 205.435 148.001 185C148.001 170.952 155.83 158.732 167.363 152.466C155.829 158.732 148 170.952 148 185C148 164.566 131.434 148 111 148H110.999C110.957 148 110.916 148 110.874 148C90.498 148.069 74.0011 164.608 74.0011 185C74.0011 172.964 68.2544 162.271 59.3552 155.514C68.2539 162.271 74.0003 172.964 74.0003 185C74.0003 205.434 57.4349 222 37.0006 222C16.5662 222 0.000851965 205.434 0.000851965 185C0.000851965 164.565 16.5662 148 37.0006 148C37.0432 148 37.0858 148 37.1283 148C57.4198 147.932 73.8642 131.529 74.0003 111.254C73.9997 111.169 73.9994 111.085 73.9994 111C73.9994 110.941 73.9996 110.881 73.9999 110.821C73.9041 90.5108 57.4437 74.0676 37.1267 73.9998C37.0844 73.9999 37.0421 74 36.9997 74ZM111 73.9996C131.434 73.9996 148 57.4341 148 36.9996C148 48.2428 153.015 58.3147 160.93 65.1006C153.015 58.3146 148.001 48.2429 148.001 37C148.001 16.5655 164.566 1.61732e-06 185 1.61732e-06C205.435 1.61732e-06 222 16.5655 222 37C222 57.4345 205.435 74 185 74C184.958 74 184.916 73.9999 184.873 73.9998C164.497 74.0678 148 90.6071 148 111C148 90.565 131.434 73.9996 111 73.9996Z" fill="#04005E"/>
</svg>
