<svg width="41" height="42" viewBox="0 0 41 42" fill="none" xmlns="http://www.w3.org/2000/svg">
<path d="M0.32168 36.1359C4.77402 36.5461 8.78594 35.3976 12.4375 32.5922C8.61777 32.2476 6.06328 30.2953 4.63789 26.6367C5.88711 26.7926 7.05625 26.8336 8.29746 26.489C4.18144 25.1765 1.9873 22.4203 1.69102 17.9742C2.92422 18.5648 4.08535 18.9914 5.45469 19.0078C3.0123 17.1293 1.76309 14.693 1.81113 11.625C1.83516 10.214 2.20352 8.88514 2.93223 7.63006C7.45664 13.0523 13.1342 16.0547 20.125 16.5551C20.085 16.2433 20.0609 15.9972 20.0289 15.743C19.4523 11.1984 22.3352 7.06405 26.7395 6.20272C29.5021 5.66131 31.9445 6.4078 34.0105 8.36014C34.3309 8.65545 34.6031 8.72108 35.0035 8.61444C36.6131 8.19608 38.1426 7.58905 39.624 6.76873C39.0555 8.68826 37.8863 10.132 36.3008 11.3461C36.6611 11.2805 37.0295 11.2312 37.3898 11.1574C37.7662 11.0754 38.1426 10.9851 38.5189 10.8785C38.8793 10.7801 39.2316 10.6652 39.584 10.5422C39.9443 10.4191 40.3047 10.2797 40.7291 10.2058C40.5209 10.5012 40.3207 10.8129 40.0965 11.1C39.1676 12.3058 38.0945 13.364 36.9174 14.3074C36.7973 14.4058 36.6932 14.6191 36.7012 14.7668C36.7652 17.6789 36.3648 20.5172 35.4439 23.2734C33.6342 28.7039 30.4791 33.1008 25.7465 36.2426C23.4082 37.793 20.8537 38.8101 18.123 39.4008C15.4164 39.9832 12.6937 40.0898 9.96309 39.7617C7.22441 39.4336 4.62188 38.6051 2.17148 37.309C1.52285 36.9726 0.898242 36.5953 0.265625 36.2344C0.289648 36.2015 0.305664 36.1687 0.32168 36.1359Z" fill="#9896AE"/>
</svg>
