<svg width="54" height="55" viewBox="0 0 54 55" fill="none" xmlns="http://www.w3.org/2000/svg">
<path d="M3.37553 11.9458C5.1474 11.9458 7.8474 11.9458 9.36615 11.9458C10.1255 11.9458 10.7161 12.4614 10.9693 13.1489C11.7286 15.3833 13.4162 20.2817 15.3568 23.6333C17.9724 28.0161 19.6599 29.6489 20.7568 29.4771C21.8536 29.2192 21.5161 26.2974 21.5161 23.9771C21.5161 21.6567 21.7693 17.7036 20.6724 15.8989L18.9849 13.4067C18.563 12.8052 18.9849 12.0317 19.6599 12.0317H29.2786C30.2068 12.0317 30.9661 12.8052 30.9661 13.7505V26.2114C30.9661 26.2114 31.388 28.4458 33.7505 26.1255C36.113 23.8052 38.6443 19.5083 40.7536 15.1255L41.5974 13.063C41.8505 12.4614 42.4411 12.0317 43.1161 12.0317H49.3599C50.5411 12.0317 51.3849 13.2349 50.963 14.3521L50.288 16.1567C50.288 16.1567 48.0099 20.7974 45.6474 24.063C43.2849 27.4146 42.7786 28.188 43.1161 29.0474C43.4536 29.9067 49.5286 35.6646 51.0474 38.4146C51.4693 39.188 51.8068 39.8755 52.1443 40.4771C52.7349 41.5942 51.8911 43.0552 50.6255 43.0552H43.538C42.9474 43.0552 42.3568 42.7114 42.1036 42.1958L41.4286 41.0786C41.4286 41.0786 37.1255 35.9224 34.5099 34.2896C31.8099 32.7427 31.8943 34.9771 31.8943 34.9771V39.5317C31.8943 41.4224 30.3755 42.9692 28.5193 42.9692H26.8318C26.8318 42.9692 17.5505 42.9692 10.1255 31.7114C4.30365 22.9458 2.36303 17.2739 1.68803 14.0083C1.51928 12.9771 2.27865 11.9458 3.37553 11.9458Z" fill="#9896AE"/>
</svg>
