<svg width="54" height="54" viewBox="0 0 54 54" fill="none" xmlns="http://www.w3.org/2000/svg">
<path d="M27.4662 47.3549C21.444 47.165 15.717 47.0174 9.99008 46.7959C8.75609 46.7431 7.50101 46.5533 6.29867 46.2685C4.04164 45.7412 2.4807 44.3806 1.67914 42.1553C1.03578 40.3623 0.803751 38.5166 0.635001 36.6392C0.26586 32.2306 0.26586 27.822 0.445157 23.4135C0.550626 20.9244 0.613907 18.4142 1.27836 15.999C1.67914 14.5541 2.1643 13.1408 3.335 12.0967C4.56898 10.9892 6.01391 10.3248 7.65922 10.251C12.1733 10.0295 16.6768 9.75525 21.1909 9.71306C27.2659 9.64978 33.3514 9.73416 39.4264 9.85017C42.0526 9.90291 44.6998 10.04 47.3049 10.3775C49.6885 10.6939 51.4709 12.0228 52.4201 14.3431C53.1479 16.1256 53.4221 17.9924 53.5803 19.8908C53.9916 24.6474 54.0022 29.4041 53.7701 34.1607C53.6541 36.576 53.5381 39.0017 52.8526 41.3537C52.0721 44.0537 50.4162 45.8361 47.653 46.4478C46.5772 46.6799 45.4592 46.7642 44.3623 46.8064C38.6248 47.0068 32.8979 47.1861 27.4662 47.3549ZM21.6338 35.3631C26.4432 32.874 31.1998 30.406 36.0514 27.8853C31.2104 25.3541 26.4537 22.8756 21.6338 20.3549C21.6338 25.3857 21.6338 30.3322 21.6338 35.3631Z" fill="#9896AE"/>
</svg>
